/* XPM */
static char *_25c02ac68b948c4a8f7cda5b50a789csscTdIAKTSHnHkHz[] = {
/* columns rows colors chars-per-pixel */
"60 60 167 2 ",
"   c #020202",
".  c #070807",
"X  c #080907",
"o  c #060A09",
"O  c #0B0B0B",
"+  c #140303",
"@  c #180809",
"#  c #120B0C",
"$  c #0F110E",
"%  c #11120F",
"&  c #0E1010",
"*  c #131313",
"=  c #181414",
"-  c #161A16",
";  c #191B17",
":  c #131B1B",
">  c #1C1D1C",
",  c #230103",
"<  c #2F0407",
"1  c #210B0C",
"2  c #281818",
"3  c #3C1619",
"4  c #1D211C",
"5  c #20231E",
"6  c #232423",
"7  c #262A24",
"8  c #292D26",
"9  c #272828",
"0  c #2C2C2C",
"q  c #2D322B",
"w  c #31352D",
"e  c #31382F",
"r  c #2C3332",
"t  c #333333",
"y  c #383131",
"u  c #333B32",
"i  c #3A3E35",
"p  c #3B3C3B",
"a  c #4F070B",
"s  c #4A0A0E",
"d  c #53070D",
"f  c #55080D",
"g  c #410F12",
"h  c #540D12",
"j  c #620A10",
"k  c #7B0A12",
"l  c #6B171A",
"z  c #6D181F",
"x  c #642426",
"c  c #354037",
"v  c #3C4036",
"b  c #374138",
"n  c #3B443A",
"m  c #3D493E",
"M  c #41463B",
"N  c #42493D",
"B  c #434343",
"V  c #464E42",
"C  c #494E42",
"Z  c #4C4C4C",
"A  c #4A5246",
"S  c #4B5649",
"D  c #4C5B4D",
"F  c #535B4D",
"G  c #585E4F",
"H  c #4F5E50",
"J  c #535353",
"K  c #565A52",
"L  c #595F50",
"P  c #5C5C5C",
"I  c #536253",
"U  c #5B6354",
"Y  c #5D6857",
"T  c #576B5B",
"R  c #5C6E5E",
"E  c #5E705F",
"W  c #616757",
"Q  c #646D5C",
"!  c #64705E",
"~  c #69705E",
"^  c #5F7160",
"/  c #656565",
"(  c #6B6B6B",
")  c #647563",
"_  c #6B7563",
"`  c #677865",
"'  c #697967",
"]  c #6C7C69",
"[  c #707865",
"{  c #727F6B",
"}  c #737373",
"|  c #7B7B7B",
" . c #8C0F17",
".. c #910C16",
"X. c #9C0C17",
"o. c #950E18",
"O. c #9E0D18",
"+. c #9A101A",
"@. c #A40812",
"#. c #B60C17",
"$. c #B30F1A",
"%. c #AB1D25",
"&. c #923132",
"*. c #9E3434",
"=. c #A22227",
"-. c #8E443F",
";. c #954944",
":. c #93534C",
">. c #955E54",
",. c #916559",
"<. c #916E60",
"1. c #907B6A",
"2. c #75836E",
"3. c #79826D",
"4. c #778570",
"5. c #798671",
"6. c #7E8B75",
"7. c #808D76",
"8. c #8E8A75",
"9. c #838F79",
"0. c #848F79",
"q. c #838F78",
"w. c #8E8F79",
"e. c #839078",
"r. c #849079",
"t. c #86917B",
"y. c #84907A",
"u. c #85917A",
"i. c #88937B",
"p. c #88937C",
"a. c #8B957E",
"s. c #8D977F",
"d. c #8C967E",
"f. c #8B967E",
"g. c #8E987F",
"h. c #808080",
"j. c #828282",
"k. c #8A8A8A",
"l. c #8D8D8D",
"z. c #8B8B8B",
"x. c #8E9880",
"c. c #8E9880",
"v. c #909A81",
"b. c #919B82",
"n. c #929B83",
"m. c #929C83",
"M. c #949D84",
"N. c #959E84",
"B. c #969E85",
"V. c #969F85",
"C. c #949D84",
"Z. c #929292",
"A. c #949494",
"S. c #9A9A9A",
"D. c #9F9F9F",
"F. c #9A9A9A",
"G. c #A1A1A1",
"H. c #A4A4A4",
"J. c #ADADAD",
"K. c #ACACAC",
"L. c #B1B1B1",
"P. c #B6B6B6",
"I. c #B3B3B3",
"U. c #BABABA",
"Y. c #C3C3C3",
"T. c #C9C9C9",
"R. c #D5D5D5",
/* pixels */
"^ ^ ^ ^ ^ ^ ^ ^ ^ ^ ^ ^ ^ ^ ^ ^ ^ ^ ^ ^ ^ ^ ^ ^ ^ ^ ^ ^ ^ ^ ^ ^ ^ ^ ^ ^ ^ ^ ^ ^ ^ ^ ^ ^ ^ ^ ^ ^ ^ ^ ^ ^ ^ ^ ^ ^ ^ ^ ^ ^ ",
"^ 4.9.7.7.7.2.4.t.6.7.7.7.7.7.7.7.7.7.7.7.7.7.7.7.7.7.7.7.7.7.7.7.7.7.7.7.7.7.7.7.7.7.7.7.7.7.7.7.7.7.t.4.2.7.7.7.9.4.^ ",
"^ e.V.b.b.b.i.7.p.M.V.V.V.V.V.V.V.V.V.V.V.V.V.V.V.V.V.V.V.V.V.V.V.V.V.V.V.V.V.V.V.V.V.V.V.V.V.V.V.V.V.p.7.i.b.b.b.V.e.^ ",
"^ 7.b.s.s.s.b.0.6.p.7.6.6.6.6.6.6.6.6.6.6.6.6.6.6.6.6.6.6.6.6.6.6.6.6.6.6.6.6.6.6.6.6.6.6.6.6.6.6.7.p.6.0.b.s.s.s.b.7.^ ",
"^ 7.b.s.s.s.s.b.p.{ ) E ^ ^ ^ ^ ^ ^ ^ ^ ^ ^ ^ ^ ^ ^ ^ ^ ^ ^ ^ ^ ^ ^ ^ ^ ^ ^ ^ ^ ^ ^ ^ ^ ^ ^ ^ ^ E ) { p.b.s.s.s.s.b.7.^ ",
"^ 7.m.s.s.s.s.b.7.) 2.4.2.2.2.2._ 2.2.2.2.2.2.2.2.2.2.2.2.2.2.2.2.2.2.2.2.2.2.2.2.2.2.2.2.2.2.2.4.2.) 7.b.s.s.s.s.m.7.^ ",
"^ 2.i.b.s.s.s.V.t.R ) ` ) ` ` -   I ) R ) ) ) ) ) ) ) ) ) ) ) ) ) ) ) ) ) ) ) ) ) ` ` ) ` ` ` ) ` ) R t.V.s.s.s.b.i.2.^ ",
"^ 4.7.t.b.b.V.t.] R ' ' ' ` R u   J . 4 ' b ) ' ' ' ' ' ' ' ' ' ' ' ' ' ' ' ' ' ' ^ ) ' ' R ` ' ' ' R ] t.V.b.b.t.7.4.^ ",
"^ t.p.6.p.7.0.] T ' 5.5.6.2.E w S.L.0 k.6   Y 5.5.5.5.5.5.5.5.5.5.5.5.5.5.5.5.5.6.` ' 6.4.E 2.6.5.4.' T ] 0.7.p.6.p.t.^ ",
"^ 7.V.p.{ ) R R ' 5.4.2.4.] u   / Z.S.U.z.  8 ] ! ] 2.2.2.2.2.2.2.2.2.2.2.2.2.2.2.) ' 5.2.) ] 4.2.4.5.` R R ) { p.V.7.^ ",
"^ 7.V.7.) 2.) ' 5.4.5.` R ` 2.  O ( z.H.Y.> 6 p   n S I E E E E E E E E E E E E E R ' 5.4.4.` R ` 5.4.4.' ) 2.) 7.V.7.^ ",
"^ 7.V.6.R 4.) ' 6.2.` ] ] 2.5.A   p | Z.P.| R.h.p } * V 6.6.6.6.6.6.6.6.6.6.6.6.7.) ' 6.5.5.2.] ] ` 2.6.' ) 4.R 6.V.7.^ ",
"^ 7.V.6.^ 2.) ' 6.4.R ] 6.5.5.` X O ( } } | G.z.K.L.J > 5.b.7.b.b.b.b.b.b.b.b.b.V.4.` ` ' 5.5.6.] R 4.6.' ) 2.^ 6.V.7.^ ",
"^ 7.V.6.^ 2.` ` 2.] ` 2.5.2.] ' u   0 / ( ( ( h.l.P.A.  K X v x.G x.x.x.x.x.x.x.x.7.] ` ' ] 2.5.2.` ] 2.` ` 2.^ 6.V.7.^ ",
"^ 7.V.6.^ 2.` R E ) 4.5.5.] ` s.C.X X J ( / / | | K.S.G.S.> K 6   5.a.a.a.a.a.a.s.5.7.V.s.` ] 5.5.4.) E R F 2.^ 6.V.7.^ ",
"^ 7.V.6.^ 2.) ' 4.2.4.5.' ' s.s.b.S   0 / / / ( } ( | l.D.D.P.}   u 4._ { 4.4.4.5.2.9.b.s.s.' ' 5.4.2.b   ; 2.D 6.V.7.^ ",
"^ 7.V.6.^ 2.) ' 6.5.5.6.` ` V.b.6.6.O . J ( / / / / } / } z.K.L.* > V X _ ~ Y t.t.p.6.6.b.V.` ` 6.N       0 t O ] V.7.^ ",
"^ 7.V.6.^ 2.` ) ' ' ' ' ` { 7.9.6.t.G   0 / / / / / / / ( | D.K.h.T.} 0 / O 4 g.x.b.t.6.9.7.{ n       - / A.S.; 5.V.7.^ ",
"^ 7.V.6.^ 2.` ^ ) ) R ) 2.7.5.2.p.b.a.-   J ( / / / / / / } | | k.G.A.K.L.t . Q s.s.b.p.2.S       * J / / h.- m 6.V.7.^ ",
"^ 7.V.6.^ 2.) ' 6.2.E 7.M.x.s.4.t.x.s.Y   6 / / / / / / / / / } } ( | Z.Y.} * w s.s.x.U       . 6 B ( ( S.} * q 6.V.7.^ ",
"^ 7.V.6.^ 2.) ' 5.2.E 6.b.x.a.4.t.x.s.a.;   Z ( / / / / / / / / / / | | U.S.F a.s.Q .     . 6 t t t z.H.S.( A ^ 6.V.7.^ ",
"^ 7.V.6.^ 2.) ' 5.2.E 6.b.x.a.4.t.x.s.s.Q   6 / / / / / / / / / / / } } t X w Q O     . 6 t t t B / } } -   8 R 6.V.7.^ ",
"^ 7.V.6.^ 2.) ' 5.2.E 6.b.x.a.4.t.s._ ~ s.- 6 / / / / / / / / / ( P 6 .   X t *     6 t t t t r t / S.6 O n ] ^ 6.V.7.^ ",
"^ 7.V.6.^ 2.) ' 5.2.E 6.b.x.a.4.{ >   7 W > | / / / / / P J / / 0 .   X 0 t t 6 6 t t t t t t p K | Z.B ) ) 2.^ 6.V.7.^ ",
"^ 7.V.6.^ 2.) ' 5.2.E 6.b.x.a.4.i . 0 h.t   Z / / / P J Z Z t .   . 6 p t t t t t t t t t t Z / / | p   I ) 2.^ 6.V.7.^ ",
"^ 7.V.6.^ 2.) ' 5.2.E 6.b.x.a.2.F / L.S.(   - ( / J Z Z p t 0 X - 6 0 t 0 t t t t t t t t t p | A.H.( q Y ) 2.^ 6.V.7.^ ",
"^ 7.V.6.^ 2.) ' 5.2.E 6.b.x.a.A   Z z.( / 0   J ( J p t t t * * > > 6 6 6 0 t t t t t t t p P z.S.( 6 L ' ) 2.^ 6.V.7.^ ",
"^ 7.V.6.^ 2.) ' 5.2.E 6.b.x.a._ t | } / P t   * / Z t t z @.    =   - > 6 6 t t t t t t t t / | t     S ' ) 2.^ 6.V.7.^ ",
"^ 7.V.6.^ 2.) ' 5.2.E 7.b.x.U 4 K D.| p 0 t -   p J 6   f $.x O.d   g : > 6 0 t t t t t t p } K.Z 7 Q 5.' ) 2.^ 6.V.7.^ ",
"^ 7.V.6.^ 2.) ' 5.2.E 6.a.w     0 | K B t t 0   X t 0   h 1.w.O.-.=.o.3 > 6 6 t t t t p K ( P } 6 I 2.5.' ) 2.^ 6.V.7.^ ",
"^ 7.V.6.^ 2.) ' 5.2.E 6.b.C 6 / H.h.J t t t t >   6 9 j +.;.s.s.s.:.a o > 6 t t t t t J / } A.P   S 2.5.' ) 2.^ 6.V.7.^ ",
"^ 7.V.6.^ 2.) ' 5.2.E 6.{ i l.K.k.( t t t t t t X -   + &.a.s.s.:..., & O O t t t t 0 Z z.S.L.( ] E 2.5.' ) 2.^ 6.V.7.^ ",
"^ 7.V.6.^ 2.) ' 5.2.E 6.q   / ( / ( B t t t t 6 > > 1 X.>.8.<.s.,.k 2 t 6   6 t t t Z / h.} *   i E 2.5.' ) 2.^ 6.V.7.^ ",
"^ 7.V.6.^ 2.) ' 5.2.E 6.L h.Z.} J 0 t t t t t 6 > > 2 X.l  .%.,.*.+   t B > O t t t 0 } h.>   q 6.E 2.5.' ) 2.^ 6.V.7.^ ",
"^ 7.V.6.^ 2.) ' 5.2.S ; . P z.Z 0 t t t t t t t > > : #   s < s #.h > p Z p   6 t p K z.K.p i.b.6.E 2.5.' ) 2.^ 6.V.7.^ ",
"^ 7.V.6.^ 2.) ' 5.2.-   t A./ / p t t t t t t t 6 > > > * -   @ x y t t K / 6 X J / / | - - { b.6.E 2.5.' ) 2.^ 6.V.7.^ ",
"^ 7.V.6.^ 2.) ' 5.2.n S.G.G.| B t t t t t t t t t 6 6 > 6 > * 0 r t B Z J ( Z   B } A.K.B 7 a.b.6.E 2.5.' ) 2.^ 6.V.7.^ ",
"^ 7.V.6.^ 2.) ' 5.u   ( S.| / t t t t t t t t t t t t 5 *     0 B Z Z Z / / / > 6 Z.S.| * a.x.b.6.E 2.5.' ) 2.^ 6.V.7.^ ",
"^ 7.V.6.^ 2.) ' 5.Q . } / / ( t t t t t t 0 t t t t > .   X p K Z Z P / / / ( J . P >   . Q x.b.6.E 2.5.' ) 2.^ 6.V.7.^ ",
"^ 7.V.6.^ 2.) ' 5.u / K.} B 0 t t t t t > . 0 t 6 X   . p P ( / P / / / / / / J M 6.; 0 Q a.x.b.6.E 2.5.' ) 2.^ 6.V.7.^ ",
"^ 7.V.6.^ 2.) q .   > | P t t t t t > .     w O     B P ( / / / / / / / / / J   > t.3.t.2.s.x.M.7.E 2.6.' ) 2.^ 6.V.7.^ ",
"^ 7.V.6.^ 2.) -   P G.h.P t t t > .     q [ s.5 K z.h.} / / / / / / / / / / ( > . G b.p.2.5.7.2.) R ) ) ^ ` 2.^ 6.V.7.^ ",
"^ 7.V.6.^ 2.` 8 H.D.A.} t t > .     0 _ x.x.A t P.K.k.| / / / / / / / / / / ( B . 5 6.6.9.7.{ ` ' ' ' ' ) ` 2.^ 6.V.7.^ ",
"^ 7.V.6.^ 2.-   } | / ( 0 .     6 Y p.t.t.0.7   l.L.A.| z.| ( / / / / / / / / ( 6 . A 6.b.V.` ` 6.5.5.6.' ) 2.^ 6.V.7.^ ",
"^ 7.V.6.^ 2.A / Z.( B *     6 Q b.9.2.5.4.4.Y   p Y./ K.L.k.Z.P / / / / / / / ( Z X * q.s.s.' ' 5.4.2.4.' ) 2.^ 6.V.7.^ ",
"^ 7.V.6.R V . ( } -     4 S ` s.V.7.5.s.a.a.a.; C 8   ( K K Y.} | / / ( / / / / ( 6 . F s.` ] 5.5.4.) E R ` 2.^ 6.V.7.^ ",
"^ 7.V.6.^ S 7 V     - S 5.2.] ' ` ] 7.x.x.x.s.x.x.~ A 3.% O P.H.| h.} } / ( / / ( Z X - R ] 2.5.2.` ] 2.` ` 2.^ 6.V.7.^ ",
"^ 7.V.6.^ 2.) ' w A R ] 6.5.5.' ` ` 4.V.b.b.b.b.b.b.b.s.M   ( Z.h.U.z.Z.z.| ( / / ( 6   u 5.5.6.] R 4.6.' ) 2.^ 6.V.7.^ ",
"^ 7.V.6.R 4.) ' 5.2.` ] ] 2.5.5.6.' ) 7.6.6.6.6.6.6.6.6.Y 7 U . p Z.B Y.G.h.| / / ( J X * _ 2.] ] ` 2.6.' ) 4.R 6.V.7.^ ",
"^ 7.V.7.) 2.) ' 5.4.5.` R ` 4.4.5.' R E E E E E E E E E E R E b D 4   G.P.z.| h.h.( ( t   b ` R ` 5.4.5.' ) 2.) 7.V.7.^ ",
"^ 7.V.p.{ ) R R ` 5.4.2.4.] ) 2.5.' ) 2.2.2.2.2.2.2.2.2.2.2.2.2.2.U   Z T.| K.K.k.S.h.( O $ ) 4.2.4.5.' R R ) { p.V.7.^ ",
"^ t.p.6.p.7.0.] T ' 4.5.6.2.E 4.6.' ` 6.5.5.5.5.5.5.5.5.5.5.5.5.5.2.5 7 ; . h.} } T.l.z.0   e 6.5.5.' T ] 0.7.p.6.p.t.^ ",
"^ 4.7.t.b.b.V.t.] R ' ' ' ` R ' ' ) ^ ' ' ' ' ' ' ' ' ' ' ' ' ' ' ' ` ' S 8 A . 0 P.K.h.} * * I ' ' R ] t.V.b.b.t.7.4.^ ",
"^ 2.i.b.s.s.s.V.t.R ) ` ) ` ` ` ) ` ` ) ) ) ) ) ) ) ) ) ) ) ) ) ) ) ) ) ) ) ) ; O } Y.z.Y.P $ D ` ) R t.V.s.s.s.b.i.2.^ ",
"^ 7.m.s.s.s.s.b.7.) 2.4.2.2.2.2.2.2.2.2.2.2.2.2.2.2.2.2.2.2.2.2.2.2.2.2.2.2.2.F $ t 6 * K.Z Q 2.4.2.) 7.b.s.s.s.s.m.7.^ ",
"^ 7.b.s.s.s.s.b.p.{ ) E ^ ^ ^ ^ ^ ^ ^ ^ ^ ^ ^ ^ ^ ^ ^ ^ ^ ^ ^ ^ ^ ^ ^ ^ ^ ^ ^ R H ^ u u q   c ^ E ) { p.b.s.s.s.s.b.7.^ ",
"^ 7.b.s.s.s.b.0.6.p.7.6.6.6.6.6.6.6.6.6.6.6.6.6.6.6.6.6.6.6.6.6.6.6.6.6.6.6.6.6.6.6.6.6.5._ 6.6.6.7.p.6.0.b.s.s.s.b.7.^ ",
"^ e.V.b.b.b.i.7.p.V.V.V.V.V.V.V.V.V.V.V.V.V.V.V.V.V.V.V.V.V.V.V.V.V.V.V.V.V.V.V.V.V.V.V.V.V.V.V.V.V.V.p.7.i.b.b.b.V.e.^ ",
"^ 4.9.7.7.7.2.4.t.7.7.7.7.7.7.7.7.7.7.7.7.7.7.7.7.7.7.7.7.7.7.7.7.7.7.7.7.7.7.7.7.7.7.7.7.7.7.7.7.6.7.t.4.2.7.7.7.9.4.^ ",
"^ ^ ^ ^ ^ ^ ^ ^ ^ ^ ^ ^ ^ ^ ^ ^ ^ ^ ^ ^ ^ ^ ^ ^ ^ ^ ^ ^ ^ ^ ^ ^ ^ ^ ^ ^ ^ ^ ^ ^ ^ ^ ^ ^ ^ ^ ^ ^ ^ ^ ^ ^ ^ ^ ^ ^ ^ ^ ^ ^ "
};
