/* XPM */
static char *_eb1d385023e48e7c3b9c66a4ba28667wpdAk9FN1XS86Kzv[] = {
/* columns rows colors chars-per-pixel */
"60 60 189 2 ",
"   c #00050A",
".  c #060A0D",
"X  c #090E0F",
"o  c #0F100F",
"O  c #1D120E",
"+  c #010D10",
"@  c #0A0F10",
"#  c #0E1313",
"$  c #061113",
"%  c #1C1614",
"&  c #121816",
"*  c #131A1A",
"=  c #191F1B",
"-  c #111615",
";  c #201612",
":  c #1B201C",
">  c #13221D",
",  c #2D271C",
"<  c #312A1E",
"1  c #151F20",
"2  c #142222",
"3  c #1E2421",
"4  c #1D2824",
"5  c #202721",
"6  c #252C24",
"7  c #292D23",
"8  c #342D24",
"9  c #293026",
"0  c #233129",
"q  c #2B332B",
"w  c #3E3326",
"e  c #30372C",
"r  c #333B2F",
"t  c #313225",
"y  c #273731",
"u  c #2D3731",
"i  c #283832",
"p  c #363E31",
"a  c #3A3A30",
"s  c #68351F",
"d  c #4F3520",
"f  c #453A29",
"g  c #5A3720",
"h  c #5D3A22",
"j  c #563C28",
"k  c #643723",
"l  c #7A3921",
"z  c #2D4337",
"x  c #374436",
"c  c #3C4536",
"v  c #3E4837",
"b  c #374038",
"n  c #3C4639",
"m  c #3E493A",
"M  c #424736",
"N  c #454836",
"B  c #4D4936",
"V  c #424C3C",
"C  c #4F4D3A",
"Z  c #544533",
"A  c #5C4E37",
"S  c #524C37",
"D  c #6A442C",
"F  c #7E4B2F",
"G  c #7E502D",
"H  c #654730",
"J  c #694730",
"K  c #634E36",
"L  c #694931",
"P  c #774D32",
"I  c #7C4C30",
"U  c #6F5336",
"Y  c #795636",
"T  c #735236",
"R  c #3E4C41",
"E  c #424F43",
"W  c #445145",
"Q  c #495444",
"!  c #465548",
"~  c #4A5649",
"^  c #4D5A4C",
"/  c #525C4D",
"(  c #555F51",
")  c #56614E",
"_  c #566353",
"`  c #5C6454",
"'  c #5D6956",
"]  c #566658",
"[  c #596758",
"{  c #576A5A",
"}  c #5C6C5C",
"|  c #5E705F",
" . c #616857",
".. c #646B5A",
"X. c #686E5D",
"o. c #64715E",
"O. c #69705E",
"+. c #5F7160",
"@. c #656E64",
"#. c #647563",
"$. c #6B7364",
"%. c #677865",
"&. c #697967",
"*. c #6B7B68",
"=. c #707665",
"-. c #717864",
";. c #707769",
":. c #717F6C",
">. c #727C6B",
",. c #767C70",
"<. c #797E75",
"1. c #86462B",
"2. c #844B2B",
"3. c #88492C",
"4. c #924729",
"5. c #984628",
"6. c #934C2C",
"7. c #9F4A29",
"8. c #934A25",
"9. c #8E502F",
"0. c #9C532F",
"q. c #835A37",
"w. c #8C5B35",
"e. c #985E39",
"r. c #985B34",
"t. c #A14827",
"y. c #AA4A27",
"u. c #A24B29",
"i. c #AD4E29",
"p. c #B34E29",
"a. c #A6542E",
"s. c #AD552D",
"d. c #AE582F",
"f. c #B35029",
"g. c #A75A31",
"h. c #A85C32",
"j. c #B05B30",
"k. c #AB6335",
"l. c #A66135",
"z. c #B36435",
"x. c #B26B39",
"c. c #B3763C",
"v. c #72806B",
"b. c #71806D",
"n. c #74836E",
"m. c #74826D",
"M. c #76846F",
"N. c #75846F",
"B. c #76846F",
"V. c #79866F",
"C. c #778570",
"Z. c #778570",
"A. c #798672",
"S. c #7B8275",
"D. c #7B8973",
"F. c #7D8973",
"G. c #7E8A75",
"H. c #7D8B75",
"J. c #7F8C76",
"K. c #7E8B75",
"L. c #7E847A",
"P. c #808D76",
"I. c #808D77",
"U. c #818E77",
"Y. c #808D76",
"T. c #838F79",
"R. c #848F79",
"E. c #848F79",
"W. c #80857C",
"Q. c #839078",
"!. c #849079",
"~. c #85917B",
"^. c #849079",
"/. c #88937B",
"(. c #88937C",
"). c #8D977F",
"_. c #8B967E",
"`. c #858B81",
"'. c #888E84",
"]. c #8C9087",
"[. c #8F948B",
"{. c #919B82",
"}. c #919A82",
"|. c #929C83",
" X c #949D84",
".X c #969E85",
"XX c #969F85",
"oX c #959E85",
"OX c #959D84",
/* pixels */
"+.+.+.+.+.+.+.+.+.+.+.+.+.+.+.+.+.+.+.+.+.+.+.+.+.+.+.+.+.+.+.+.+.+.+.+.+.+.+.+.+.+.+.+.+.+.+.+.+.+.+.+.+.+.+.+.+.+.+.+.",
"+.C.T.P.P.P.v.C.~.P.P.P.P.P.P.P.P.P.P.P.P.P.P.P.P.P.P.P.P.P.P.P.P.P.P.P.P.P.P.P.P.P.P.P.P.P.P.P.P.P.P.~.C.v.P.P.P.T.C.+.",
"+.Q.XX{.{.{./.P.(.XXXXXXXXXXXXXXXXXXXXXXXXXXXXXXXXXXXXXXXXXXXXXXXXXXXXXXXXXXXXXXXXXXXXXXXXXXXXXXXXXXXX(.P./.{.{.{.XXQ.+.",
"+.P.{.).).).{.R.F.(.P.G.J.J.J.J.J.J.J.G.G.J.J.J.J.J.J.J.J.J.J.J.J.J.J.J.J.J.J.J.J.J.J.J.J.J.J.J.G.P.(.F.R.{.).).).{.P.+.",
"+.P.{.).).).).{.(.:.#.| +.+.+.+.+.+.{ ^ +.} } } } } } } } +.+.+.+.+.+.+.+.+.+.+.+.+.+.+.+.+.+.+.| #.:.(.{.).).).).{.P.+.",
"+.P.|.).).).).{.P.#.n.C.M.M.M.M.M.M.n.n.:.W W W W W W W #.M.M.M.M.M.M.M.M.M.C.C.M.M.M.M.M.M.M.M.C.n.#.P.{.).).).).|.P.+.",
"+.b./.{.).).).XX~.} #.%.#.%.%.%.#.%.%.} ~ ' ' '  .` E E ! _ #.#.#.#._ ! ! ! ! ! ! ! ! #.%.%.%.#.%.#.} ~.XX).).).{./.b.+.",
"+.C.P.~.{.{.XX~.*.} %.%.*.%.} %.*.#.{ ( ` ..X.` / ^ E E E ! [ %.%._ / ` ( ( ( ` ` ( E ^ #.} %.*.%.%.} *.~.XX{.{.~.P.C.+.",
"+.~.(.F.(.P.R.*.{ %.A.D.G.b.| C.G...^ ` X. ...^ m E E E E E W #.O.^ ' X.X.X.X.' ` ( E E _ { b.G.D.A.%.{ *.R.P.(.F.(.~.+.",
"+.P.XX(.:.#.} } %.A.C.M.C.*.} %.:.! ` X. . ...( W E E E E E E W W ' X. . . .../ E R E E E ^ &.C.M.C.A.%.} } #.:.(.XXP.+.",
"+.P.XXP.#.n.#.%.A.C.A.%.} _ W W E ' .... . . ...( R E E E E E W  ... . . . . ...` E E E E E ~ } %.A.C.A.%.#.n.#.P.XXP.+.",
"+.P.XXJ.} C.#.%.F.M.%.*._ /  .' '  ... . . .X.( E R E E E E R W .... . . . . .X.( R E E E E W ^ *.%.M.F.%.#.C.} J.XXP.+.",
"+.P.XXJ.+.M.#.*.G.C.} _ /  ......... . ...X./ R W ` ` ` ` ` / R ^ ' .. . . . ... ./ R E E E E E ( { C.G.*.#.M.+.J.XXP.+.",
"+.P.XXJ.+.M.%.%.b.%._ ^  .X. . . . . .....( R W ' X.......X. .^ R ` X. . . . . ... ./ E E E E E W ^ o.b.%.%.M.+.J.XXP.+.",
"+.P.XXJ.+.M.%.} | } W  ... . . ... ... .` E W ' X. . . . . .....^ ' .. . . ...X......./ W E E E W m ^ | } %.M.+.J.XXP.+.",
"+.P.XXJ.+.M.#.%.C.%.W  ... . . ... .X._ n m ' X. ........... ...X... .......' ` ' ....X.^ R E E W m _ n.%.#.M.+.J.XXP.+.",
"+.P.XXJ.+.M.#.*.G.v.E S.$.'  . ...X.-.Q . $ / =.O.O.O.O.O.O.O.O.O.O.O.O.O.O.4   u -.O.X.^ R W E E W V / *.#.M.+.J.XXP.+.",
"+.P.XXJ.+.M.%.#.o.^ ' $.S.;.` ..-.i * w 2.2.8 2 2 2 2 2 2 2 2 2 2 2 2 2 2 3 D G h 1 2  .$.^ n W E W m Q #.%.M.+.J.XXP.+.",
"+.P.XXJ.+.M.%._ ^ ` ..' $.,.;.` b j , f c.x.t < h g g g g g g g g g g h d 2 r.c.G > g a Q Q x V W W m ! +.%.M.+.J.XXP.+.",
"+.P.XXJ.+.M.#.^ ^ O. . .` ;.`...+ 8.e.K q.q.A r.z.z.z.z.z.z.z.z.z.z.z.z.h.K Y q.U T z.O 4 m c c V W E ! } #.M.+.J.XXP.+.",
"+.P.XXJ.+.C.#.^ / .. . .' ;.'.S.* s i.3.x c 6.i.u.u.u.u.u.u.u.u.u.t.u.u.u.y.Z z J p.4.% 0 V c c c V W E c #.M.+.J.XXP.+.",
"+.P.XXJ.+.C.! ( .. . . .' ;.'.<.* 0 P y.7.7.t.g.k.h.u.u.u.u.u.u.u.t.a.k.h.u.7.7.u.6.c # q V c c c c V E V #.M.+.J.XXP.+.",
"+.P.XXJ.+.C.W ( X. . . .' ,.L.! # k u.u.u.u.u.u.a.u.t.t.t.t.t.t.t.t.u.u.u.u.u.u.u.u.3.% 0 V c c c c c n V #.M.+.J.XXP.+.",
"+.P.XXJ.} ` (  ... . . ....._ n # l f.u.u.u.u.t.u.h.h.h.h.h.h.h.h.h.h.a.t.u.u.u.u.u.u.; 0 V c c c c c c V #.M.+.J.XXP.+.",
"+.P.XXJ.} E ' X. .......X./ m R # l i.u.u.u.u.t.u.h.g.g.g.g.g.g.g.g.h.a.t.u.u.u.u.u.7.; 0 E m c c c c c V #.M.+.J.XXP.+.",
"+.P.XXD.] ! ' .. . .....X.( E R # l i.u.u.u.u.u.u.u.u.u.u.u.u.u.u.u.u.u.u.u.u.u.u.u.7.; i ! E c c c c c V { n.+.J.XXP.+.",
"+.P.XX%.W  ... . . . . .X./ E R # l i.u.u.u.t.g.k.k.k.k.k.k.k.k.k.k.k.k.h.u.u.u.u.u.7.; y ! W E c c c c c c $.+.J.XXP.+.",
"+.P.XX*.W  ... . . . .../ E W R # l f.u.u.u.u.u.u.u.u.u.u.u.u.u.u.u.u.u.u.u.u.u.u.i.y.; y ! E E E n c c c c *.+.J.XXP.+.",
"+.P.A./ `  . ..... . ...! R W R @ w S D y.t.t.a.h.h.h.u.t.u.t.u.h.h.h.h.g.u.t.y.1.B Z o q ! E E W E m c c c ! _ J.XXP.+.",
"+.&.} $.;.....( ` X...X.^ R W E 6 j L I s.a.i.s.j.j.j.i.y.y.y.i.d.j.j.j.d.y.a.d.9.H L 7 b W E E W E m c c c c / J.XXP.+.",
"+.! $.[.L. .../ ! ' ` ' ! E E E m F 5.0.x.z.6.1.1.1.1.3.3.3.3.3.1.1.1.1.1.3.k.x.g.4.6.C R E E E E c c c c c c ~ n.XXP.+.",
"+.^ ..`.L.X. .X.` R E E E E E E W n z A k.l.B z x x x x x x x x x x x x x x w.k.Y z x E W E W E c c c c c c c c / XXP.+.",
"+.! ^ ;.`.W.$. ...` E E E E E E W m c c N N c c m m m m m m m m m m m m m c M N M c c E W W E c c V E E E c c c ) XXP.+.",
"+.V / $.$.$... ... .` ' ! R E E E E m c m x V q * : : : : : : : : : : = 5 V n x x c E E E E E V E E W W E E n c V ' P.+.",
"+.O./ ' >. . . . .....X.' ^ E E E W E E W V q & . X X X X X X X X X X X # 5 c V c V W E E E E W W E E E E W n c c V P.+.",
"+.P.O.Q ,... . . . . ... ./ E E E E W W m e # X # # # # # # # # # # # # # X 6 x V W E E E E E E E E E E E E m c c Q P.+.",
"#.F...m E '  ... . . . .! R E E E E W E r # # # # # # # # # # # # # # # # # . 6 V W E E E E E E E E E E E E W m c Q V.+.",
"o.( _ ` R E ' ........! E E E E E E W E p # # # # # # # # # # # # # # # # # X 9 V W E E W E E E E E E E E E W m c c Q +.",
"! ( ...._ R W W _ ..! E E E E E E E W E p # # # # # # # # # # # # # # # # # X 9 E W m m c m W E E E E E E E W V c c Q ..",
"m ` X....._ E n W ^ E E E E E E E E W W x # # # # # # # # # # # # # # # # # X 9 V m b x m E W E E E E E E W V n c c Q  .",
"c ` X. ...X./ / ! R E E E E E E E W W m 6 # # # # # # # # # # # # # # # # # X q v c Q V E W E E E W W W E V c c c c Q } ",
"c / .... . .X.../ E E E E E E E W W m 6 . # # # # # # # # # # # # # # # # # X 7 V ! X.! E E E E W E E E V c c c c c ! } ",
"c m ( .. . ...^ R E E E E E E E W V 5 X # # # # # # # # # # # # # # # # # # X 6 / X. .! E E E E W m c c c c c c c c ! } ",
"c V E / X.X.^ E R W ' '  ./ E E n V 5 . # # # # # # # # # # # # # # # # # # . c O. .! E E W E m c V E E E E c c c c Q } ",
"c E E W ^ ^ W m ! ' ....O.` R E V m b 3 . # # # # # # # # # # # # # # # # # . E O.! E E W m ^ $.m m W W W W E m c c Q  .",
"c E W E R R R ! ` X. .X.' ! E E W m V x : # # # # # @ @ @ @ @ @ @ X # # # # . b ( R E E R E ..'.@.! E E E E W E m c ..} ",
"W E W E E E W ' X.....' ! R E E E c c V c # # # @ # : : = = = = = : & @ # # X q ! E E E W ( $.L.]._ m E E E W E W  .P.} ",
"+._ ! W W E ' .. . . .W E E W W m c c m p # # # # = m m v v v v v V 6 # - # X u ! E E E ` X. . .L.( m E E E E m ) XXP.+.",
"+.F.).A.{ n ` O.` E W E E R !  ...! n c p # . 6 c x c c c c c c c c x x r # . u ! E E ` ..X.' W ! W E E E E m c ) XXP.+.",
"+.P.XXP.} c ' $.` R E E E ^ ..X./ W E V p # 6 c V v c c c c c c c c c V c r # 6 W E E ' O.` W E E E E E E E n c ) XXP.+.",
"+.P.XX(.*.^ ! / ! E E E E ! _ / E E W ! _ E _ ' ` ` ` ` ` ` ` ` ` ` ` ` ` ' W ^ ' _ _ ' ' ! R E E E E E E E m c / XXP.+.",
"+.~.(.F.(.P.` W W ^ E E E E R R E E ! o.D.D.D.D.D.D.D.D.D.D.D.D.D.D.D.D.D.D.D.D.G.%.*.*./ R E E E E E E E E m Q ..(.~.+.",
"+.C.P.~.{.{.XX~.*.} ! ! V V ! ! ! W _ %.%.%.%.%.%.%.%.%.%.%.%.%.%.%.%.%.%.%.%.%.%.+.#.*.{ E E E E E E E E ^ Q >.~.P.C.+.",
"+.b./.{.).).).oX~.} #.#.#.#.%.#.#.#.%.#.#.#.#.#.#.#.#.#.#.#.#.#.#.#.#.#.#.#.#.#.#.%.%.#.#._ E E E E E E ! ~._.).{./.b.+.",
"+.P.|.).).).).{.P.#.n.C.M.M.M.M.M.M.M.M.M.M.M.M.M.M.M.M.M.M.M.M.M.M.M.M.M.M.M.M.M.M.M.M.M.M.M.M.C.n.#.P.{.).).).).|.P.+.",
"+.P.{.).).).).{.(.:.#.| +.+.+.+.+.+.+.+.+.+.+.+.+.+.+.+.+.+.+.+.+.+.+.+.+.+.+.+.+.+.+.+.+.+.+.+.| #.:.(.{.).).).).{.P.+.",
"+.P.{.).).).{.R.F.(.P.G.J.J.J.J.J.J.J.J.J.J.J.J.J.J.J.J.J.J.J.J.J.J.J.J.J.J.J.J.J.J.J.J.J.J.J.J.G.P.(.F.R.{.).).).{.P.+.",
"+.Q.XX{.{.{./.P.(.XXXXXXXXXXXXXXXXXXXXXXXXXXXXXXXXXXXXXXXXXXXXXXXXXXXXXXXXXXXXXXXXXXXXXXXXXXXXXXXXXXXX(.P./.{.{.{.XXQ.+.",
"+.C.T.P.P.P.v.C.~.P.P.P.P.P.P.P.P.P.P.P.P.P.P.P.P.P.P.P.P.P.P.P.P.P.P.P.P.P.P.P.P.P.P.P.P.P.P.P.P.P.P.~.C.v.P.P.P.T.C.+.",
"+.+.+.+.+.+.+.+.+.+.+.+.+.+.+.+.+.+.+.+.+.+.+.+.+.+.+.+.+.+.+.+.+.+.+.+.+.+.+.+.+.+.+.+.+.+.+.+.+.+.+.+.+.+.+.+.+.+.+.+."
};
