/* XPM */
static char *_22ac187596b4a6381c9b6ee08a61133jvhIF85pCkjOu8Zc[] = {
/* columns rows colors chars-per-pixel */
"60 60 220 2 ",
"   c #00050B",
".  c #000A0E",
"X  c #0A0E0F",
"o  c #1D0B07",
"O  c #0F100F",
"+  c #030E11",
"@  c #090F12",
"#  c #061113",
"$  c #0C1313",
"%  c #141512",
"&  c #1C1A15",
"*  c #131A1A",
"=  c #181916",
"-  c #1D120E",
";  c #29160B",
":  c #221612",
">  c #2A1C16",
",  c #251D1B",
"<  c #241C15",
"1  c #311E1A",
"2  c #13221D",
"3  c #26231B",
"4  c #2D251D",
"5  c #2F291D",
"6  c #2A2315",
"7  c #34231B",
"8  c #312B1E",
"9  c #3C291D",
"0  c #151F20",
"q  c #142222",
"w  c #1C2421",
"e  c #1C2926",
"r  c #1C2F32",
"t  c #1F3437",
"y  c #2C2D22",
"u  c #242823",
"i  c #322D21",
"p  c #233129",
"a  c #2B332C",
"s  c #333225",
"d  c #363629",
"f  c #3C382B",
"g  c #253531",
"h  c #2B3732",
"j  c #343C33",
"k  c #393931",
"l  c #42221C",
"z  c #572C1B",
"x  c #4F351B",
"c  c #79361C",
"v  c #78371D",
"b  c #68351F",
"n  c #452B26",
"m  c #4A2E28",
"M  c #4E3324",
"N  c #453728",
"B  c #5A3720",
"V  c #5D3A22",
"C  c #563C28",
"Z  c #433A34",
"A  c #6F3721",
"S  c #673829",
"D  c #7B3A22",
"F  c #743D2E",
"G  c #753924",
"H  c #723E30",
"J  c #6C3C30",
"K  c #2D4337",
"L  c #364437",
"P  c #3C4536",
"I  c #3D4639",
"U  c #3E493B",
"Y  c #3B4438",
"T  c #584429",
"R  c #564228",
"E  c #454836",
"W  c #424539",
"Q  c #424C3D",
"!  c #4A4937",
"~  c #574A35",
"^  c #67462B",
"/  c #79432D",
"(  c #7E502D",
")  c #6A4332",
"_  c #684B31",
"`  c #634B34",
"'  c #7A4D31",
"]  c #795836",
"[  c #6F5336",
"{  c #3E4C42",
"}  c #37494C",
"|  c #3F5044",
" . c #344D53",
".. c #424F43",
"X. c #4A4E41",
"o. c #445145",
"O. c #4A5344",
"+. c #465548",
"@. c #4A5649",
"#. c #4D5A4C",
"$. c #525C4D",
"%. c #535747",
"&. c #555F50",
"*. c #7A5B51",
"=. c #56614E",
"-. c #566253",
";. c #5C6454",
":. c #576A5A",
">. c #5C6C5C",
",. c #5B6857",
"<. c #5E705F",
"1. c #616957",
"2. c #646B5A",
"3. c #686E5D",
"4. c #606757",
"5. c #64715F",
"6. c #69705E",
"7. c #6F6547",
"8. c #5F7160",
"9. c #656F66",
"0. c #647463",
"q. c #6B7363",
"w. c #677865",
"e. c #697966",
"r. c #6B7B68",
"t. c #687469",
"y. c #717864",
"u. c #707769",
"i. c #727D6C",
"p. c #707665",
"a. c #6B7C74",
"s. c #767C70",
"d. c #797E75",
"f. c #803F29",
"g. c #86452C",
"h. c #8D462D",
"j. c #844B2B",
"k. c #89492C",
"l. c #8D4427",
"z. c #92472B",
"x. c #934B2C",
"c. c #9E4929",
"v. c #954726",
"b. c #8E502F",
"n. c #9D562F",
"m. c #835A37",
"M. c #8C5B35",
"N. c #985C36",
"B. c #974A30",
"V. c #A64626",
"C. c #A14827",
"Z. c #AA4A27",
"A. c #A24B29",
"S. c #AC4D2A",
"D. c #A24728",
"F. c #B24E2A",
"G. c #B34D27",
"H. c #A5532D",
"J. c #AE582F",
"K. c #AD552D",
"L. c #B3512B",
"P. c #A75A31",
"I. c #A85C32",
"U. c #A65232",
"Y. c #B05B30",
"T. c #946A38",
"R. c #AB6335",
"E. c #A46C3B",
"W. c #A66135",
"Q. c #B36435",
"!. c #B26B39",
"~. c #B56739",
"^. c #A3723E",
"/. c #AF763D",
"(. c #B3763C",
"). c #CC7438",
"_. c #885143",
"`. c #875D51",
"'. c #977144",
"]. c #BF7B42",
"[. c #AF6B54",
"{. c #B87B59",
"}. c #A77868",
"|. c #C07C42",
" X c #74836E",
".X c #76846F",
"XX c #75846F",
"oX c #74836E",
"OX c #79866F",
"+X c #778570",
"@X c #778470",
"#X c #798672",
"$X c #7A8573",
"%X c #7D8973",
"&X c #7E8B75",
"*X c #7F8C76",
"=X c #7E8B75",
"-X c #7E847A",
";X c #7B8B7C",
":X c #808D76",
">X c #818E77",
",X c #808D76",
"<X c #848F79",
"1X c #80857C",
"2X c #84907A",
"3X c #849079",
"4X c #88937B",
"5X c #88937C",
"6X c #8D977F",
"7X c #8B967E",
"8X c #AD8972",
"9X c #C78449",
"0X c #858B81",
"qX c #888E84",
"wX c #8E9486",
"eX c #919B82",
"rX c #919A82",
"tX c #969E85",
"yX c #949D84",
"uX c #959D84",
/* pixels */
"8.8.8.8.8.8.8.8.8.8.8.8.8.8.8.8.8.8.8.8.8.8.8.8.8.8.8.8.8.8.8.8.8.8.8.8.8.8.8.8.8.8.8.8.8.8.8.8.8.8.8.8.8.8.8.8.8.8.8.8.",
"8.+X<X:X:X:X X+X2X:X:X:X:X:X:X:X:X:X:X:X:X:X:X:X:X:X:X:X:X:X:X:X:X:X:X:X:X:X:X:X:X:X:X:X:X:X:X:X:X:X:X2X+X X:X:X:X<X+X8.",
"8.3XtXeXeXeX4X:X5XtXtXtXtXtXtXtXtXtXtXtXtXtXtXtXtXtXtXtXtXtXtXtXtXtXtXtXtXtXtXtXtXtXtXtXtXtXtXtXtXtXtX5X:X4XeXeXeXtX3X8.",
"8.:XeX6X6X6XeX<X%X5X:X&X*X*X*X*X*X*X*X&X*X*X*X*X*X*X*X*X*X*X*X*X*X*X*X*X*X*X*X*X*X*X*X*X*X*X*X*X&X:X5X%X<XeX6X6X6XeX:X8.",
"8.:XeX6X6X6X6XeX5Xi.0.<.8.8.8.8.8.8.:.#.8.>.>.>.>.>.>.>.>.8.8.8.8.8.8.8.8.8.8.8.8.8.8.8.8.8.8.8.<.0.i.5XeX6X6X6X6XeX:X8.",
"8.:XeX6X6X6X6XeX:X0. X+X.X.X.X.X.X.X X Xi.o.o.o.o.o.o.o.0..X.X.X.X.X.X.X.X.X+X+X.X.X.X.X.X.X.X.X+X X0.:XeX6X6X6X6XeX:X8.",
"8. X4XeX6X6X6XtX2X>.0.w.0.w.w.w.0.w.w.>.@.;.;.;.1.;.....+.-.0.0.0.0.-.+.+.+.+.+.+.+.@.0.w.w.w.0.w.0.>.2XtX6X6X6XeX4X X8.",
"8.+X:X2XeXeXtX2Xr.>.w.w.r.w.>.w.r.0.:.&.;.2.3.;.$.#.......@.,.w.w.-.$.;.&.&.&.;.;.&...#.0.>.w.r.w.w.>.r.2XtXeXeX2X:X+X8.",
"8.2X5X%X5X:X<Xr.:.w.#X%X&X X8.+X&X2.#.;.3.1.2.#.U ..........o.0.6.#.;.3.3.3.3.;.;.&.....-.:. X&X%X#Xw.:.r.<X:X5X%X5X2X8.",
"8.:XtX5Xi.0.>.>.w.#X+X.X+Xr.>.w.i.@.;.3.1.1.2.&.o.............o.o.;.3.1.1.1.2.$...{ ......#.e.+X.X+X#Xw.>.>.0.i.5XtX:X8.",
"8.:XtX:X0. X0.w.#X+X#Xw.>.-.o.o...;.2.1.1.1.1.3.&.{ ..........o.1.2.1.1.1.1.1.2.;...........@.>.w.#X+X#Xw.0. X0.:XtX:X8.",
"8.:XtX*X>.+X0.w.%X.Xw.r.-.$.1.;.;.1.2.1.1.1.3.&...{ ........{ o.2.2.1.1.1.1.1.3.&.{ ........o.#.r.w..X%Xw.0.+X>.*XtX:X8.",
"8.:XtX*X8..X0.r.&X+X>.-.$.1.2.2.2.2.1.1.2.3.$.{ o.;.;.;.;.;.$.{ #.;.2.1.1.1.1.2.1.$.{ ..........&.:.+X&Xr.0..X8.*XtX:X8.",
"8.:XtX*X8..Xw.w. Xw.-.#.1.3.1.1.1.1.1.2.2.&.{ o.;.3.2.2.2.3.1.#.{ ;.3.1.1.1.1.1.2.1.$...........o.#.5. Xw.w..X8.*XtX:X8.",
"8.:XtX*X8..Xw.>.<.>.o.1.2.1.1.1.2.1.2.1.;...o.;.3.1.1.1.1.1.2.2.#.;.2.2.1.1.2.3.2.2.2.$.o.......o.U #.<.>.w..X8.*XtX:X8.",
"8.:XtX*X8..X0.w.+Xw.o.1.2.1.1.1.2.1.3.-.I U ;.3.1.2.2.2.2.2.1.2.3.2.1.2.2.2.;.;.;.2.2.3.#.{ ....o.U -. Xw.0..X8.*XtX:X8.",
"8.:XtX*X8..X0.r.&X X..-Xq.;.1.1.2.3.y.O.. # $.p.6.6.6.6.6.6.6.6.6.6.6.6.6.6.e   h y.6.3.#.{ o.....o.Q $.r.0..X8.*XtX:X8.",
"8.:XtX*X8..Xw.0.5.#.;.q.-Xu.;.2.y.h * f j.j.i q q q q q q q q q q q q q q w ^ ( V 0 q 1.q.#.I o...o.U O.0.w..X8.*XtX:X8.",
"8.:XtX*X8..Xw.-.#.;.2.;.q.s.u.;.L C 4 N (.!.s 8 V B B B B B B B B B B V M q N.(.( 2 B k O.O.L Q o.o.U @.8.w..X8.*XtX:X8.",
"8.:XtX*X8..X0.#.#.6.1.1.;.u.0X2.+ v.N.` m.m.~ N.Q.Q.Q.Q.Q.Q.Q.Q.Q.Q.Q.Q.I.` ] m.[ [ Q.- w I P P Q o...@.>.0..X8.*XtX:X8.",
"8.:XtX*X8..X0.#.$.2.1.1.;.u.qX-X* b S.k.L P x.S.A.A.A.A.A.A.A.A.A.C.A.A.A.Z.~ K _ G.z.& p Q P P P Q o...P 0..X8.*XtX:X8.",
"8.:XtX*X8.+X+.&.2.1.1.1.;.u.qXd.* p ' Z.c.c.C.P.R.I.A.A.A.A.A.A.A.C.H.R.I.A.c.c.A.x.P $ a Q P P P P Q ..Q 0..X8.*XtX:X8.",
"8.:XtX*X8.+Xo.&.3.1.1.1.;.s.-X+.$ S A.A.A.A.A.A.H.A.C.C.C.C.C.C.C.C.A.A.A.A.A.A.A.A.k.& p Q P P P P P I Q 0..X8.*XtX:X8.",
"8.:XtX*X>.;.&.4.2.1.1.1.2.2.-.Y $ D F.A.A.A.A.C.A.I.I.I.I.I.I.I.I.I.I.H.C.A.A.A.A.A.A.: p Q P P P P P P Q 0..X8.*XtX:X8.",
"8.:XtX*X>...;.3.1.2.2.2.3.$.U { $ G S.A.A.A.A.C.A.I.P.P.P.P.P.P.P.P.I.H.C.A.A.A.A.A.c.: p ..U P P P P P Q 0..X8.*XtX:X8.",
"8.:XtX%X:.@.;.2.1.1.2.2.3.&...{ $ G S.A.A.A.A.A.A.A.A.A.A.A.A.A.A.A.A.A.A.A.A.A.A.A.c.: h @...P P P P P Q :. X8.*XtX:X8.",
"8.:XtXw.o.1.2.1.1.1.1.1.3.$...{ $ G S.A.A.A.C.P.R.R.R.R.R.R.R.R.R.R.R.R.I.A.A.A.A.A.c.: g @.o...P P P P P P q.8.*XtX:X8.",
"8.:XtXr.o.1.2.1.1.1.1.2.$...o.{ $ D L.A.A.A.A.A.A.A.A.A.A.A.A.A.A.A.A.A.A.A.A.A.A.S.Z.: g @.......I P P P P r.8.*XtX:X8.",
"8.:X#X$.;.1.1.2.2.1.1.2.#.{ o.{ @ f ~ _ V.C.C.H.I.I.I.A.C.A.C.A.I.I.I.I.P.A.C.Z.g.! ~ O a @.....o...U P P P @.-.*XtX:X8.",
"8.e.>.q.u.2.2.&.;.3.2.3.#.{ o...u C _ ' K.H.S.K.Y.Y.Y.S.Z.Z.Z.S.J.Y.Y.Y.J.Z.H.J.b._ _ y L o.....o...U P P P P $.*XtX:X8.",
"8.@.q.wX-X1.2.$.@.;.;.;.@.......U ' v.n.!.Q.x.g.g.g.g.k.k.k.k.k.g.g.g.g.g.k.I.!.P.z.x.! { ........P P P P P P @. XtX:X8.",
"8.#.2.0X-X3.1.3.;.{ ............o.I K ~ R.W.! K L L L L L L L L L L L L L L M.R.] K L ..o...o...P P P P P P P P $.tX:X8.",
"8.@.#.u.0X1Xq.1.2.;.............o.U P P E E P P U U U U U U U U U U U U U P E E E P P ..o.o...P P Q ......P P P =.tX:X8.",
"8.Q $.q.q.q.3.1.2.1.;.;.@.{ ......1.&.o.4.&.....o.P i U o.......o...y ! 6.1.1.1.Y P ..........Q ....o.o.....I P Q ,.:X8.",
"8.6.$.;.i.1.1.1.1.2.2.3.;.#.......1.%.d #.#.o.@.#.W s ..@.@.@.@.@.o.8 f -.2.2.1.P Q o.........o.o.........o.I P P Q :X8.",
"8.:X6.O.s.2.1.1.1.1.1.2.1.$.......2.%.s k I I j L a 3 j L j j j Y I f L o.-.1.1.Q o.........................U P P O.:X8.",
"8.%X2.U ..;.1.2.1.1.1.1.@.{ ......1.;...s 8 4 $ $ $ $ $ $ $ $ @ = i U o.....;.1.Q o.........................o.U P O.OX8.",
"<.&.-.;.{ ..;.2.2.2.2.@...........@.@...Q y % $ $ $ $ .         . + # g { ..;.2.Q o.....o...................o.U P P O.8.",
"@.&.2.2.-.{ o.o.-.2.@...................+.e   . .   + N ^ T T T T R x _ 7.o.@.$...o.U U P U o...............o.Q P P O.2.",
"U ;.3.2.2.-...I o.#.....................%.f < 3 3 & 4 E.9X].].].].|.9X9XE.O.{ ..Q U L L U ..o.............o.Q I P P O.1.",
"P ;.3.1.2.3.$.$.@.{ ................{ O.'./.E.^.^.^.^.H.A.H.H.H.Z.U.8X{.v.X.{ ..I P O.Q ..o.......o.o.o...Q P P P P O.>.",
"P $.2.2.1.1.3.2.$.{ ............o...{ O.n.{.8X~.Q.~.Q.A.V.F.S.F.D.g.`._./ X.| ..Q @.3.@.........o.......Q P P P P P @.>.",
"P U &.2.1.1.2.#.{ ..............o...{ X.v.[.}.A.V.V.V.S.l.A G G S n l l N ..o...$.3.1.@.........o.U P P P P P P P P @.>.",
"P Q ..$.3.3.#...{ o.;.;.1.$.....I ..{ X.h.Z.c.c.c.c.A.S.z + $ $ $ $ $ X * { o...6.1.+.....o...U P Q ........P P P P O.>.",
"P ....o.#.#.o.U @.;.2.2.6.;.{ ..Q ..o...4 : > > > > < & 7 m n n n M ] T.] O.{ ..6.@.....o.U #.q.U U o.o.o.o...I P P O.>.",
"P ..o...{ { { @.;.3.1.3.;.@.....o...o...y , , , , 4 9 7 S B.h.z.h.h.Q.).E.O.{ ..&.{ ....{ ..2.qX9.@.........o...U P 2.>.",
"o...o.......o.;.3.2.2.;.@.{ ........o...) F H H J g.L.F.A.c.c.c.A.A.U.S.h.X.{ ..+.......o.&.q.-XwX-.U ......o...o.1.:X>.",
"8.-.@.o.o...;.2.1.1.1.o.....o.o.U ..o...) F F F J g.A.S.g.S J S D S.8X[.v.X.{ ..@.......;.3.1.1.-X&.U ........U =.tX:X8.",
"8.%X6X#X:.I ;.6.;...o.....{ @.1.2...o.o.i 1 7 > - z L.L.A.z.x.h.f./ *._./ O.o...@.....;.2.3.;.o.@.o.........U P =.tX:X8.",
"8.:XtX:X>.P ;.q.;.{ ......#.2.3.$.o.o.Y * . # w t Z v v c c c C.A.F G D ) W { o.o.....;.6.;.o...............I P =.tX:X8.",
"8.:XtX5Xr.#.@.$.@.........@.-.$.....P 8 i = u q.;Xa.a * w w $ A L.A.c.S.l.9 L ..,.-.-.;.;.@.{ ..............U P $.tX:X8.",
"8.2X5X%X5X:X;.o.o.#.........{ { ..d s 8 i : Q +X+X@X@Xa.@X@Xa.k o ; ; ; 7 8 s d &Xw.r.r.$.{ ................U O.2.5X2X8.",
"8.+X:X2XeXeXtX2Xr.>.+.+.Q Q +.+.@.5 8 i 5 W i.+X+X+X+X+X+X+X%Xa.} }  .r % 5 8 5 w.8.0.r.:.................#.O.i.2X:X+X8.",
"8. X4XeX6X6X6XyX2X>.0.0.0.0.w.0.0.i i 8 6 9.$X+X+X+X+X+X+X+X+X+X#X$X;Xt.8 8 i i 0.w.w.0.0.-.............@.2X7X6XeX4X X8.",
"8.:XeX6X6X6X6XeX:X0. X+X.X.X.X.X.X.X.X.X.X+X+X+X+X+X+X+X+X+X+X+X+X+X+X+X.X.X.X.X.X.X.X.X.X.X.X.X+X X0.:XeX6X6X6X6XeX:X8.",
"8.:XeX6X6X6X6XeX5Xi.0.<.8.8.8.8.8.8.8.8.8.w.r.i. X Xi. X X+X+X+X+X+X+X@Xi.w.8.8.8.8.8.8.8.8.8.8.<.0.i.5XeX6X6X6X6XeX:X8.",
"8.:XeX6X6X6XeX<X%X5X:X&X*X*X*X*X*X*X*X*X*X*X&X&X*X*X*X*X&X#X#X#X#X#X#X#X#X&X*X*X*X*X*X*X*X*X*X*X&X:X5X%X<XeX6X6X6XeX:X8.",
"8.3XtXeXeXeX4X:X5XtXtXtXtXtXtXtXtXtXtXtXtXtXtXtXtXtXtXtXtXtXtXtXtXtXtXeXrXtXtXtXtXtXtXtXtXtXtXtXtXtXtX5X:X4XeXeXeXtX3X8.",
"8.+X<X:X:X:X X+X2X:X:X:X:X:X:X:X:X:X:X:X:X:X:X:X:X:X:X:X:X:X:X:X:X:X:X:X:X:X:X:X:X:X:X:X:X:X:X:X:X:X:X2X+X X:X:X:X<X+X8.",
"8.8.8.8.8.8.8.8.8.8.8.8.8.8.8.8.8.8.8.8.8.8.8.8.8.8.8.8.8.8.8.8.8.8.8.8.8.8.8.8.8.8.8.8.8.8.8.8.8.8.8.8.8.8.8.8.8.8.8.8."
};
