/* XPM */
static char *_f78f4af67c8462ca188a78fd064a57dIwBQgTOCMqFfkbAu[] = {
/* columns rows colors chars-per-pixel */
"60 60 220 2 ",
"   c #020100",
".  c #0C090A",
"X  c #0D0606",
"o  c #120D0B",
"O  c #130604",
"+  c #16130C",
"@  c #1C1414",
"#  c #1C1A16",
"$  c #340F0E",
"%  c #231C1A",
"&  c #291E1D",
"*  c #271816",
"=  c #301516",
"-  c #28221E",
";  c #261D20",
":  c #252320",
">  c #2C2424",
",  c #2D2B2A",
"<  c #2C2B27",
"1  c #322626",
"2  c #332926",
"3  c #332B2B",
"4  c #3A2D2D",
"5  c #392827",
"6  c #35332E",
"7  c #3A302E",
"8  c #392E31",
"9  c #353331",
"0  c #3C3433",
"q  c #3C3A35",
"w  c #3E3C38",
"e  c #481719",
"r  c #5C1615",
"t  c #4E0E0F",
"y  c #69181A",
"u  c #751418",
"i  c #4C221E",
"p  c #591C22",
"a  c #413535",
"s  c #433A36",
"d  c #443B3B",
"f  c #4C3E3E",
"g  c #483838",
"h  c #503E3E",
"j  c #583633",
"k  c #4D2F29",
"l  c #632B28",
"z  c #683A37",
"x  c #3F413C",
"c  c #44423C",
"v  c #4B413E",
"b  c #4A4439",
"n  c #55453A",
"m  c #4D3E41",
"M  c #473B40",
"N  c #513F41",
"B  c #454441",
"V  c #4D4242",
"C  c #4C4A44",
"Z  c #474744",
"A  c #524343",
"S  c #5B4C43",
"D  c #574749",
"F  c #5A464A",
"G  c #534B4B",
"H  c #5B4C4C",
"J  c #564845",
"K  c #4E534B",
"L  c #51514A",
"P  c #5B514E",
"I  c #585349",
"U  c #5D4E52",
"Y  c #5C5352",
"T  c #5B5B54",
"R  c #575654",
"E  c #714843",
"W  c #6A5A4A",
"Q  c #624E51",
"!  c #625454",
"~  c #6B5A55",
"^  c #6C5C5C",
"/  c #655959",
"(  c #725E5F",
")  c #775B57",
"_  c #674942",
"`  c #5E635A",
"'  c #5C6E5E",
"]  c #58695A",
"[  c #5E705F",
"{  c #63655C",
"}  c #6B625E",
"|  c #69665A",
" . c #796859",
".. c #6E5C61",
"X. c #725E61",
"o. c #5F7160",
"O. c #6D6562",
"+. c #656A61",
"@. c #6A6C62",
"#. c #6A6866",
"$. c #746263",
"%. c #756E6A",
"&. c #796A66",
"*. c #647563",
"=. c #6D7266",
"-. c #677865",
";. c #697967",
":. c #6C756A",
">. c #6C7C69",
",. c #72746B",
"<. c #727D6C",
"1. c #777669",
"2. c #6F7D70",
"3. c #7A7D72",
"4. c #787873",
"5. c #746F70",
"6. c #88181B",
"7. c #971D1E",
"8. c #9C231F",
"9. c #A6221D",
"0. c #871E21",
"q. c #A71F23",
"w. c #9A2326",
"e. c #B02D2D",
"r. c #D61D1E",
"t. c #C31F25",
"y. c #C72528",
"u. c #D72528",
"i. c #D63234",
"p. c #D03032",
"a. c #E63A3A",
"s. c #F9373B",
"d. c #F72F35",
"f. c #913F46",
"g. c #D23F43",
"h. c #9B4244",
"j. c #84715E",
"k. c #8B765D",
"l. c #826E5C",
"z. c #806E6E",
"x. c #8B7664",
"c. c #8A7877",
"v. c #DA4947",
"b. c #D75853",
"n. c #F64748",
"m. c #F15351",
"M. c #75836E",
"N. c #778570",
"B. c #778570",
"V. c #798672",
"C. c #7A8672",
"Z. c #7F8C76",
"A. c #7E8B75",
"S. c #7F887A",
"D. c #98856A",
"F. c #808D76",
"G. c #818E77",
"H. c #808D76",
"J. c #838D7A",
"K. c #85897A",
"L. c #9A8879",
"P. c #84907A",
"I. c #86917A",
"U. c #88937C",
"Y. c #8D977F",
"T. c #8C967E",
"R. c #AB9274",
"E. c #8C8D81",
"W. c #8B8888",
"Q. c #958A88",
"!. c #8D9383",
"~. c #8F9980",
"^. c #919B82",
"/. c #919A82",
"(. c #969E85",
"). c #949D84",
"_. c #949D84",
"`. c #959D89",
"'. c #97978D",
"]. c #9C9691",
"[. c #B59E82",
"{. c #A89C8B",
"}. c #9BA28B",
"|. c #BFA486",
" X c #ADA49E",
".X c #B7A591",
"XX c #B4ADA6",
"oX c #BAB2AC",
"OX c #BBB6AD",
"+X c #BBB8B5",
"@X c #AEACA6",
"#X c #D7B78F",
"$X c #C9AD93",
"%X c #CEB393",
"&X c #D5B896",
"*X c #C3A98C",
"=X c #C4BCB5",
"-X c #C5BCB9",
";X c #C4BAB5",
":X c #C2BAAE",
">X c #E4C49E",
",X c #DAC2A5",
"<X c #CAC2B9",
"1X c #D0C8BE",
"2X c #E8C8A4",
"3X c #FFDBAC",
"4X c #F7D4AA",
"5X c #FEDCB2",
"6X c #F0CDA6",
"7X c #FFE4B5",
"8X c #CAC7C2",
"9X c #D2CCC5",
"0X c #DED5CE",
"qX c #D7D1C9",
"wX c #DDDAD2",
"eX c #E4DDD4",
"rX c #E4DBD7",
"tX c #EAE4DA",
"yX c #FDE0C0",
"uX c #EEE6E0",
/* pixels */
"o.o.o.o.o.o.o.o.o.o.o.o.o.o.o.o.o.o.o.o.o.o.o.o.2.4.T G 0 : > q G T 5.W.;.o.o.o.o.o.o.o.o.o.o.o.o.o.o.o.o.o.o.o.o.o.o.o.",
"o.N.J.F.F.F.M.N.I.Z.F.F.F.F.F.F.F.F.F.F.F.U.S.L d 3 0 a m A A V M a 8 ; c ,.!.F.F.F.F.F.F.F.F.F.F.F.F.I.N.M.F.F.F.J.N.o.",
"o.P.(.^.^.^.U.F.U._.(.(.(.(.(.(.(.(.(.(.!.d 3 d m m D ! ..X.X.X.....^ U V 3 q K.(.(.(.(.(.(.(.(.(.(.(.U.F.U.^.^.^.(.P.o.",
"o.F.^.Y.Y.Y.^.J.A.U.F.A.Z.Z.Z.Z.Z.Z.J.+.w d A m f F X.X.X.X.X.X.X.X.X.$...! V w ` Z.Z.Z.Z.Z.Z.Z.A.F.U.A.J.^.Y.Y.Y.^.F.o.",
"o.F.^.Y.Y.Y.Y.^.U.<.*.[ o.o.o.o.o.*.K 3 V V m f f H $.( ( ( ( X.( ( ( ( X.$.^ F q T o.o.o.o.o.o.[ *.<.U.^.Y.Y.Y.Y.^.F.o.",
"o.F.^.Y.Y.Y.Y.^.F.*.M.N.M.M.M.M.M.:., A m m m m f h ~ $.X.( ( X.( ( ( ( ( ( $.X.F 0 C.M.M.M.M.M.N.M.*.F.^.Y.Y.Y.Y.^.F.o.",
"o.M.U.^.Y.Y.Y.(.I.' *.-.*.-.-.-.*.Z d d m m m h f g A ^ $.X.( ( ( ( ( ( ( ( ( X.^ s 6 >.-.-.-.*.-.*.' I.(.Y.Y.Y.^.U.M.o.",
"o.N.F.I.^.^.(.I.>.' ;.;.;.-.' ;.;.>.c > m m f f h f f A ! $.$.( ( ( ( ( ( ( X.( X.H % 3.;.[ -.;.;.;.' >.I.(.^.^.I.F.N.o.",
"o.I.U.A.U.F.J.>.] ;.V.C.A.M.[ N.A.;.:.3 A N f h h f f f f H ^ X.$.( ( ( ( ( ( X.$.! 3 { N.[ M.A.C.V.;.] >.J.F.U.A.U.I.o.",
"o.F.(.U.<.*.' ' ;.V.N.M.N.>.*.M.C.;.=.0 N N f f h f f f A f A ! ^ ( } } ( ( ( ( ( A q K N.*.>.N.M.N.V.-.' ' *.<.U.(.F.o.",
"o.F.(.F.*.M.*.;.V.N.V.-.' -.N.N.V.;.T a m f f f f f f A s , 3 0 A H ~ ( ( ( ( ~ F f d < J.N.-.' -.V.N.N.;.*.M.*.F.(.F.o.",
"o.F.(.Z.' N.*.;.A.M.-.>.>.M.V.V.A.;.R s f f f f f f N 4 2 j.j.g & 4 v A J J F h f 4 0 - J.V.M.>.>.-.M.A.;.*.N.' Z.(.F.o.",
"o.F.(.Z.o.M.*.;.A.N.' >.A.C.V.;.-.-.R s f f f f f V 8 g $X2X%X>XR.n - 4 f f a > 1 ~ 7 x ;.V.C.A.>.' N.A.;.*.M.o.Z.(.F.o.",
"o.F.(.Z.o.M.-.-.M.>.-.M.C.M.>.;.-.>.` s f f f f f f 2 |.x.% o k.7X4XL._ > - g j.$XyXj.K ;.>.M.C.M.-.>.M.-.-.M.o.Z.(.F.o.",
"o.F.(.Z.o.M.-.' [ *.N.V.V.>.-.Y.(.F.{ 0 f f f f V 7 S 5X>X .    k.3X7X4X#X#X6X5X .n 1.!.Y.-.>.V.V.N.*.[ ' -.M.o.Z.(.F.o.",
"o.F.(.Z.o.M.*.;.N.M.N.V.;.;.Y.Y.^.J.=.4 f f f f A > j.3X3X|.%.K . x.5X3X3X3X4XW + D.~ `.Y.Y.;.;.V.N.M.N.;.*.M.o.Z.(.F.o.",
"o.F.(.Z.o.M.*.;.A.C.V.A.-.-.(.^.A.A.!.s f f f f A > l.3X3XD.9X8X. X x.2X5X2Xx.3 C ,X@.J.^.(.-.-.A.V.C.A.;.*.M.o.Z.(.F.o.",
"o.F.(.Z.o.M.-.*.;.;.;.;.-.<.F.J.Z.I.^.c s V f f v 0 n 4X5X|.w ,   2 W %X7XR.T +XL {.!.Z.J.F.<.-.;.;.;.;.*.-.M.o.Z.(.F.o.",
"o.F.(.Z.o.M.-.o.*.*.' *.M.F.V.M.U.^.Y.!.w V f f m m 3 x.5X3Xn   - *X5X6X>X2X.XV W {.`.U.M.V.F.M.*.' *.*.o.-.M.o.Z.(.F.o.",
"o.F.(.Z.o.M.*.;.A.M.[ F._.~.Y.N.I.~.Y.Y.3.c V V m m d > W &X,X[.%X&Xk.b b  .*X[.,X1.`.I.N.Y.~._.F.[ M.A.;.*.M.o.Z.(.F.o.",
"o.F.(.Z.o.M.*.;.C.M.[ Z.^.~.T.N.I.~.Y.Y.Y.3.q s V V V m 3 3 S W S 1 > A ^ ^ H L.| c ~.I.B.T.~.^.Z.[ M.C.;.*.M.o.Z.(.F.o.",
"o.F.(.Z.o.M.*.;.C.M.[ Z.^.~.T.N.I.~.Y.Y.Y.Y.K.C 2 f V V V V s 0 s H &.c.&.z.z.Y 9 !.Y.I.V.Y.~.^.Z.[ M.C.;.*.M.o.Z.(.F.o.",
"o.F.(.Z.o.M.*.;.C.M.[ Z.^.~.T.N.I.~.Y.Y.Y.Y.Y._.R @ 3 0 c V V V H z.L.c.z.&.Y @.U.Y.~.I.N.T.~.^.Z.[ M.C.;.*.M.o.Z.(.F.o.",
"o.F.(.Z.o.M.*.;.C.M.[ Z.^.~.T.N.I.~.Y.Y.Y.Y.Y.Y.U.u u $ * > 4 0 V ! 5.#.O.d B K.Y.Y.~.I.N.T.~.^.Z.[ M.C.;.*.M.o.Z.(.F.o.",
"o.F.(.Z.o.M.*.;.C.M.[ Z.^.~.T.N.I.~.Y.Y.!.T ` <.C y u.t.7.u r p j & 5 N g B _.Y.Y.Y.~.I.N.T.~.^.Z.[ M.C.;.*.M.o.Z.(.F.o.",
"o.F.(.Z.o.M.*.;.C.M.[ Z.^.~.T.N.I.~.Y._.w B Z 0 @ O 6.u.u.u.p.v.v.g.g.v.f.G _.Y.Y.Y.~.I.N.T.~.^.Z.[ M.C.;.*.M.o.Z.(.F.o.",
"o.F.(.Z.o.M.*.;.C.M.[ Z.^.~.T.N.I.~.`.{ 3 C a m A : O u y.r.i.v.v.m.n.p.k V T _.Y.Y.~.I.N.T.~.^.Z.[ M.C.;.*.M.o.Z.(.F.o.",
"o.F.(.Z.o.M.*.;.C.M.[ Z.^.~.T.N.K.` 3 0 V s o @ 0 0 + & y e.i.a.m.m.v.z q v 2 @.Y.Y.~.I.N.T.~.^.Z.[ M.C.;.*.M.o.Z.(.F.o.",
"o.F.(.Z.o.M.*.;.C.M.[ Z.^.~.T.+.3.9 0 D A A 8 . o + 2 H Y F h.p.n.b.E : 4 f v b J.Y.~.I.N.T.~.^.Z.[ M.C.;.*.M.o.Z.(.F.o.",
"o.F.(.Z.o.M.*.;.C.M.[ Z.^.~.S.K.4.: A F Q F D :   3 P $.! Y F p 6.l d @ - v v f C _.~.I.N.T.~.^.Z.[ M.C.;.*.M.o.Z.(.F.o.",
"o.F.(.Z.o.M.*.;.C.M.[ A.^._.=.qXC 3 m f A D A > X f O.P A $.$.! g a f 0 #.3 V v 4 @.~.I.N.T.~.^.Z.[ M.C.;.*.M.o.Z.(.F.o.",
"o.F.(.Z.o.M.*.;.C.M.[ Z.^.`.#.eXv 4 s 1 a A > e r / O.P } O.^ $.! ^ f O.-X3 2 0 d Z `.I.N.T.~.^.Z.[ M.C.;.*.M.o.Z.(.F.o.",
"o.F.(.Z.o.M.*.;.C.M.[ Z.^._.@.wXO.& s 4 1 & O l k d G C ! A A P P A : 0 w & V H H 0 =.I.N.T.~.^.Z.[ M.C.;.*.M.o.Z.(.F.o.",
"o.F.(.Z.o.M.*.;.C.M.[ Z.^.~.K.S.OXY V Y Y L %.,.# < T T d G s 3 s / E.oX'.0 d &.! f 9 ~.N.T.~.^.Z.[ M.C.;.*.M.o.Z.(.F.o.",
"o.F.(.Z.o.M.*.;.C.M.[ Z.^.~.T.,.:.=.,.<._.K.:.B c $./ } G 2 @ %.<XeXtXeXuX X> A A V 9 ~.N.T.~.^.Z.[ M.C.;.*.M.o.Z.(.F.o.",
"o.F.(.Z.o.M.*.;.C.M.[ Z.^.~.T.N.!.K.`.Y.Y.,.9 L %.A % s G f > s XXrXrXeX0X8XY 3 v C | I.N.T.~.^.Z.[ M.C.;.*.M.o.Z.(.F.o.",
"o.F.(.Z.o.M.*.;.C.M.[ Z.^.~.T.N.I.~.Y.Y.Y.S @ G O.> @ s V J V 3 0 OX8X;X:X-X%.1 c =.~.I.N.T.~.^.Z.[ M.C.;.*.M.o.Z.(.F.o.",
"o.F.(.Z.o.M.*.;.C.M.[ Z.^.~.T.N.I.~.Y.Y.^.E 6.* 0 d 0 V Y G V V & %.=XOX;X;XY q !.Y.~.I.N.T.~.^.Z.[ M.C.;.*.M.o.Z.(.F.o.",
"o.F.(.Z.o.M.*.;.C.M.[ Z.^.~.T.N.I.~.Y.Y._.l w.= s 3 0 A A f s f 3 P -X-X].=.3._.Y.Y.~.I.N.T.~.^.Z.[ M.C.;.*.M.o.Z.(.F.o.",
"o.F.(.Z.o.M.*.;.C.M.[ Z.^.~.T.N.I.~.Y.Y.`.e t a A > % s V 0 & f 3 Y Q.G K.`.Y.Y.Y.Y.~.I.N.T.~.^.Z.[ M.C.;.*.M.o.Z.(.F.o.",
"o.F.(.Z.o.M.*.;.A.M.[ F._.~.Y.N.I.~.Y.Y.`.o 4 A N f 3 % : @ % : @ % 1 @ `.Y.Y.Y.Y.Y.~.I.N.Y.~._.F.[ M.A.;.*.M.o.Z.(.F.o.",
"o.F.(.Z.o.M.-.o.*.*.' *.M.F.V.M.U.^.Y.Y.E.: f h h N N %   w 7 7 7 d V 0 3.Y.Y.Y.Y.Y.^.U.M.V.F.M.*.' *.*.o.-.M.o.Z.(.F.o.",
"o.F.(.Z.o.M.-.*.;.;.;.;.-.<.F.J.Z.I.^.`.C s f f f m > # X W./ s V v v v q `.~.~.~.^.I.Z.J.F.<.-.;.;.;.;.*.-.M.o.Z.(.F.o.",
"o.F.(.Z.o.M.*.;.A.C.V.A.-.-.(.^.A.A.U.@.8 V m f F 9 . 0 4.K 3.- v f f V s #.I.I.I.U.A.A.^.(.-.-.A.V.C.A.;.*.M.o.Z.(.F.o.",
"o.F.(.Z.o.M.*.;.N.M.N.V.;.;.Y.Y.^.J.S.q m M m H U = e { z., +Xd a f f f Y c J.N.V.M.J.^.Y.Y.;.;.V.N.M.N.;.*.M.o.Z.(.F.o.",
"o.F.(.Z.o.M.-.' [ *.N.V.V.>.-.Y.(.F.,.9 m f F ( 4 0.0.e q.r +XW.> v f d H G T T.Y.V.F.(.Y.-.>.V.V.N.*.[ ' -.M.o.Z.(.F.o.",
"o.F.(.Z.o.M.-.-.M.>.-.M.C.M.>.;.-.>.+.a V m ( Q e a.7.u s.q.E.~.C s f f v ^ C 3.~.F.>.-.;.>.M.C.M.-.>.M.-.-.M.o.Z.(.F.o.",
"o.F.(.Z.o.M.*.;.A.N.' >.A.C.V.;.-.>.C s 0 4 F D p s.8.u d.y.} ^.!.2 V f f Y ^ 6 ,.N.-.-.;.V.C.A.>.' N.A.;.*.M.o.Z.(.F.o.",
"o.F.(.Z.' N.*.;.A.M.-.>.>.M.V.V.A.B.. d V v q : $ a.e.r 6.z C.F.J.C s v V A d 7 3.+.;.A.V.V.M.>.>.-.M.A.;.*.N.' Z.(.F.o.",
"o.F.(.F.*.M.*.;.V.N.V.-.' -.N.N.V.B.T oXoX:X-X].5 i.y.i #.;.[ ' [ >.7 a 7 > 2 ].rX:.{ V.M.N.-.' -.V.N.V.;.*.M.*.F.(.F.o.",
"o.F.(.U.<.*.' ' ;.V.N.M.N.>.*.M.C.,.4.<XOX-XeXtX) y.u._ M.M.M.M.M.M.@.@ d }  X0XtXeX=.S.M.*.>.N.M.N.V.;.' ' *.<.U.(.F.o.",
"o.I.U.A.U.F.J.>.] ;.N.C.A.M.[ N.A.:.'.=XOX<XeXtX&.6.9.n A.C.C.V.C.C.A.I ].<X:X<XeXtX0X| J.[ M.A.C.V.;.] >.J.F.U.A.U.I.o.",
"o.N.F.I.^.^.(.I.>.' ;.;.;.-.' ;.;.:.@X=XoX+XqXtXQ.g 1.C.;.;.;.;.;.;.;.C.{ OX=X=X<X1XqXoX` o.-.;.;.;.' >.I.(.^.^.I.F.N.o.",
"o.M.U.^.Y.Y.Y.(.I.' *.-.*.-.-.-.*.+.R C c c c #.,.:.*.*.*.*.*.*.*.*.*.*.:.=.XX} b c c I 0 ,.-.*.-.*.' I.(.Y.Y.Y.^.U.M.o.",
"o.F.^.Y.Y.Y.Y.^.F.*.M.N.M.M.M.M.A.c & 0 s V v > % 3.M.M.M.M.M.M.M.M.M.M.M.=.3 - 0 s c s % K M.M.N.M.*.F.^.Y.Y.Y.Y.^.F.o.",
"o.F.^.Y.Y.Y.Y.^.U.<.*.[ o.o.o.o.K 6 V V H $.$.$.0 ` o.o.o.o.o.o.o.o.o.o.o.>.% A V A ^ $.} 9 2.o.[ *.<.U.^.Y.Y.Y.Y.^.F.o.",
"o.F.^.Y.Y.Y.^.J.A.U.F.A.Z.Z.Z.S.c Z v A ( $.} $.A @.Z.Z.A.A.Z.Z.Z.Z.Z.Z.Z.<.4 V f D $.$.&.0 3.Z.A.F.U.A.J.^.Y.Y.Y.^.F.o.",
"o.P.(.^.^.^.U.F.U.(.(.(.(.(.}.c 9 q 0 s F F F H s =.(.(.(.(.(.(.(.(.(.(.(.@.9 s 0 d H F H 0 | (.(.(.(.U.F.U.^.^.^.(.P.o.",
"o.N.J.F.F.F.M.N.I.F.F.F.F.F.J.B K K L L L L L L C =.F.F.F.F.F.F.F.F.F.F.F.+.C L L L L L L C =.F.F.F.F.I.N.M.F.F.F.J.N.o.",
"o.o.o.o.o.o.o.o.o.o.o.o.o.o.o.o.o.o.o.o.o.o.o.o.o.*.*.*.o.o.o.o.o.o.o.o.o.o.o.o.o.o.o.o.o.o.o.o.o.o.o.o.o.o.o.o.o.o.o.o."
};
