/* XPM */
static char *_076e06a2b774b379782728769275274XAwXACgdYFYLF55z[] = {
/* columns rows colors chars-per-pixel */
"60 60 137 2 ",
"   c #576B5B",
".  c #5B6E5D",
"X  c #5C6D5D",
"o  c #5C6E5D",
"O  c #5C6F5E",
"+  c #5C6F5F",
"@  c #5D6F5F",
"#  c #5D705F",
"$  c #5E705F",
"%  c #5F705F",
"&  c #5E7060",
"*  c #5F7160",
"=  c #607160",
"-  c #607161",
";  c #607260",
":  c #627361",
">  c #627362",
",  c #627461",
"<  c #627462",
"1  c #637462",
"2  c #627463",
"3  c #637463",
"4  c #647563",
"5  c #647564",
"6  c #647664",
"7  c #657664",
"8  c #667664",
"9  c #667764",
"0  c #667765",
"q  c #677765",
"w  c #677766",
"e  c #677865",
"r  c #687866",
"t  c #697866",
"y  c #687966",
"u  c #697967",
"i  c #6A7967",
"p  c #697A67",
"a  c #6A7A67",
"s  c #6A7A68",
"d  c #6B7B68",
"f  c #6C7B69",
"g  c #6B7C68",
"h  c #6C7C69",
"j  c #6D7D69",
"k  c #6D7D6A",
"l  c #6E7E6A",
"z  c #6F7E6B",
"x  c #6F7F6B",
"c  c #707E6B",
"v  c #717F6C",
"b  c #71806B",
"n  c #71806C",
"m  c #71816D",
"M  c #72816C",
"N  c #72806D",
"B  c #74826D",
"V  c #74826E",
"C  c #74836E",
"Z  c #75836E",
"A  c #75836F",
"S  c #75846F",
"D  c #76846F",
"F  c #768470",
"G  c #778470",
"H  c #768570",
"J  c #778570",
"K  c #778571",
"L  c #788570",
"P  c #788571",
"I  c #788671",
"U  c #798671",
"Y  c #798771",
"T  c #7A8771",
"R  c #798772",
"E  c #7A8772",
"W  c #7A8872",
"Q  c #7B8872",
"!  c #7A8873",
"~  c #7B8873",
"^  c #7B8973",
"/  c #7C8873",
"(  c #7D8973",
")  c #7C8974",
"_  c #7D8974",
"`  c #7D8A74",
"'  c #7D8B75",
"]  c #7E8A75",
"[  c #7E8B75",
"{  c #7F8B75",
"}  c #7F8B76",
"|  c #7F8C75",
" . c #7F8C76",
".. c #808C76",
"X. c #808D76",
"o. c #808D77",
"O. c #818D77",
"+. c #828D77",
"@. c #818E77",
"#. c #828E77",
"$. c #828E78",
"%. c #838E78",
"&. c #838F79",
"*. c #848F78",
"=. c #848F79",
"-. c #839078",
";. c #849079",
":. c #84907A",
">. c #86917A",
",. c #86917B",
"<. c #87927B",
"1. c #88937B",
"2. c #88937C",
"3. c #8B957E",
"4. c #8C967E",
"5. c #8C967F",
"6. c #8C977F",
"7. c #8D977F",
"8. c #8E9880",
"9. c #8F9980",
"0. c #8F9981",
"q. c #909A81",
"w. c #919A81",
"e. c #909A82",
"r. c #919A82",
"t. c #919B82",
"y. c #929B83",
"u. c #929C83",
"i. c #939D84",
"p. c #949C84",
"a. c #949D84",
"s. c #959D84",
"d. c #949E84",
"f. c #959E84",
"g. c #959E85",
"h. c #969E85",
"j. c #969F85",
/* pixels */
"* * * * * * * * * * * * * * * * * * * * * * * * * * * * * * * * * * * * * * * * * * * * * * * * * * * * * * * * * * * * ",
"* J &.X.X.X.b J ,.X.X.X.X.X.X.X.X.X.X.X.X.X.X.X.X.X.X.X.X.X.X.X.X.X.X.X.X.X.X.X.X.X.X.X.X.X.X.X.X.X.X.,.J b X.X.X.&.J * ",
"* -.j.t.t.t.1.X.2.j.j.j.j.j.j.j.j.j.j.j.j.j.j.j.j.j.j.j.j.j.j.j.j.j.j.j.j.j.j.j.j.j.j.j.j.j.j.j.j.j.j.2.X.1.t.t.t.j.-.* ",
"* X.t.7.7.7.t.=.( 2.X.]  . . . . . . . . . . . . . . . . . . . . . . . . . . . . . . . . . . . .] X.2.( =.t.7.7.7.t.X.* ",
"* X.t.7.7.7.7.t.2.v - % * * * * * * * * * * * * * * * * * * * * * * * * * * * * * * * * * * * * % - v 2.t.7.7.7.7.t.X.* ",
"* X.u.7.7.7.7.t.X.- V J D D D D D D D D D D D D D D D D D D D D D D D D D D D D D D D D D D D D J V - X.t.7.7.7.7.u.X.* ",
"* n 1.t.7.7.7.j.,.. 4 q 4 q q q 4 q q 4 4 4 4 4 4 4 4 4 4 4 4 4 4 4 4 4 4 4 4 4 4 q q 4 q q q 4 q 4 . ,.j.7.7.7.t.1.n * ",
"* J X.,.t.t.j.,.g @ r r s q @ r s - * r r r r r r r r r r r r r r r r r r r r r r * - s r @ q s r r @ g ,.j.t.t.,.X.J * ",
"* ,.2.( 2.X.=.f   r R ^ ] n % J ] s q ] ^ ^ ^ ^ ^ ^ ^ ^ ^ ^ ^ ^ ^ ^ ^ ^ ^ ^ ^ ^ ] q s ] J % n ] ^ R r   f =.X.2.( 2.,.* ",
"* X.j.2.v - . @ r R J D J h - V ^ r 1 D V V V V V V V V V V V V V V V V V V V V D 1 r ^ V - h J D J R r @ . - v 2.j.X.* ",
"* X.j.X.- V 1 r R J R e @ q J J R s @ % % % % % % % % % % % % % % % % % % % % % % @ s R J J q @ e R J R r 1 V - X.j.X.* ",
"* X.j. .@ J 4 r ( D q h h n R R ] r 1 X. . . . . . . . . . . . . . . . . . . . .X.1 r ] R R n h h q D ( r 4 J @  .j.X.* ",
"* X.j. .* D 4 s ] J @ h ] ^ R r q q J j.t.t.t.t.t.t.t.t.t.t.t.t.t.t.t.t.t.t.t.t.j.J q q r R ^ ] h @ J ] s 4 D *  .j.X.* ",
"* X.j. .* D q q n h q n ^ D h r e h X.8.8.8.8.8.8.8.8.8.8.8.8.8.8.8.8.8.8.8.8.8.8.X.h e r h D ^ n q h n q q D *  .j.X.* ",
"* X.j. .* D q @ % 1 J R R h q 7.j.X.R 7.3.3.3.3.3.3.3.3.3.3.3.3.3.3.3.3.3.3.3.3.7.R X.j.7.q h R R J 1 % @ q D *  .j.X.* ",
"* X.j. .* D 4 r J V J R r r 7.7.t.&.V R J J J J J J J J J J J J J J J J J J J J R V &.t.7.7.r r R J V J r 4 D *  .j.X.* ",
"* X.j. .* D 4 s ] ^ R ] q q j.t.] ] 2.,.,.,.,.,.,.,.,.,.,.,.,.,.,.,.,.,.,.,.,.,.,.2.] ] t.j.q q ] R ^ ] s 4 D *  .j.X.* ",
"* X.j. .* D q - r r s r q c X.&. .,.t.8.8.8.8.8.8.8.8.8.8.8.8.8.8.8.8.8.8.8.8.8.8.t.,. .&.X.c q r s r r - q D *  .j.X.* ",
"* X.j. .* D q * 4 1 @ 1 D X.R V 2.t.7.7.7.7.7.7.7.7.7.7.7.7.7.7.7.7.7.7.7.7.7.7.7.7.t.2.V R X.D 1 @ 1 4 * q D *  .j.X.* ",
"* X.j. .* D 4 r ] D % X.i.8.7.J ,.8.7.7.7.7.7.7.7.7.7.7.7.7.7.7.7.7.7.7.7.7.7.7.7.7.8.,.J 7.8.i.X.% D ] r 4 D *  .j.X.* ",
"* X.j. .* D 4 r ^ V %  .t.8.3.J ,.8.7.7.7.7.7.7.7.7.7.7.7.7.7.7.7.7.7.7.7.7.7.7.7.7.8.,.J 3.8.t. .% V ^ r 4 D *  .j.X.* ",
"* X.j. .* D 4 r ^ V %  .t.8.3.J ,.8.7.7.7.7.7.7.7.7.7.7.7.7.7.7.7.7.7.7.7.7.7.7.7.7.8.,.J 3.8.t. .% V ^ r 4 D *  .j.X.* ",
"* X.j. .* D 4 r ^ V %  .t.8.3.J ,.8.7.7.7.7.7.7.7.7.7.7.7.7.7.7.7.7.7.7.7.7.7.7.7.7.8.,.J 3.8.t. .% V ^ r 4 D *  .j.X.* ",
"* X.j. .* D 4 r ^ V %  .t.8.3.J ,.8.7.7.7.7.7.7.7.7.7.7.7.7.7.7.7.7.7.7.7.7.7.7.7.7.8.,.J 3.8.t. .% V ^ r 4 D *  .j.X.* ",
"* X.j. .* D 4 r ^ V %  .t.8.3.J ,.8.7.7.7.7.7.7.7.7.7.7.7.7.7.7.7.7.7.7.7.7.7.7.7.7.8.,.J 3.8.t. .% V ^ r 4 D *  .j.X.* ",
"* X.j. .* D 4 r ^ V %  .t.8.3.J ,.8.7.7.7.7.7.7.7.7.7.7.7.7.7.7.7.7.7.7.7.7.7.7.7.7.8.,.J 3.8.t. .% V ^ r 4 D *  .j.X.* ",
"* X.j. .* D 4 r ^ V %  .t.8.3.J ,.8.7.7.7.7.7.7.7.7.7.7.7.7.7.7.7.7.7.7.7.7.7.7.7.7.8.,.J 3.8.t. .% V ^ r 4 D *  .j.X.* ",
"* X.j. .* D 4 r ^ V %  .t.8.3.J ,.8.7.7.7.7.7.7.7.7.7.7.7.7.7.7.7.7.7.7.7.7.7.7.7.7.8.,.J 3.8.t. .% V ^ r 4 D *  .j.X.* ",
"* X.j. .* D 4 r ^ V %  .t.8.3.J ,.8.7.7.7.7.7.7.7.7.7.7.7.7.7.7.7.7.7.7.7.7.7.7.7.7.8.,.J 3.8.t. .% V ^ r 4 D *  .j.X.* ",
"* X.j. .* D 4 r ^ V %  .t.8.3.J ,.8.7.7.7.7.7.7.7.7.7.7.7.7.7.7.7.7.7.7.7.7.7.7.7.7.8.,.J 3.8.t. .% V ^ r 4 D *  .j.X.* ",
"* X.j. .* D 4 r ^ V %  .t.8.3.J ,.8.7.7.7.7.7.7.7.7.7.7.7.7.7.7.7.7.7.7.7.7.7.7.7.7.8.,.J 3.8.t. .% V ^ r 4 D *  .j.X.* ",
"* X.j. .* D 4 r ^ V %  .t.8.3.J ,.8.7.7.7.7.7.7.7.7.7.7.7.7.7.7.7.7.7.7.7.7.7.7.7.7.8.,.J 3.8.t. .% V ^ r 4 D *  .j.X.* ",
"* X.j. .* D 4 r ^ V %  .t.8.3.J ,.8.7.7.7.7.7.7.7.7.7.7.7.7.7.7.7.7.7.7.7.7.7.7.7.7.8.,.J 3.8.t. .% V ^ r 4 D *  .j.X.* ",
"* X.j. .* D 4 r ^ V %  .t.8.3.J ,.8.7.7.7.7.7.7.7.7.7.7.7.7.7.7.7.7.7.7.7.7.7.7.7.7.8.,.J 3.8.t. .% V ^ r 4 D *  .j.X.* ",
"* X.j. .* D 4 r ^ V %  .t.8.3.J ,.8.7.7.7.7.7.7.7.7.7.7.7.7.7.7.7.7.7.7.7.7.7.7.7.7.8.,.J 3.8.t. .% V ^ r 4 D *  .j.X.* ",
"* X.j. .* D 4 r ^ V %  .t.8.3.J ,.8.7.7.7.7.7.7.7.7.7.7.7.7.7.7.7.7.7.7.7.7.7.7.7.7.8.,.J 3.8.t. .% V ^ r 4 D *  .j.X.* ",
"* X.j. .* D 4 r ^ V %  .t.8.3.J ,.8.7.7.7.7.7.7.7.7.7.7.7.7.7.7.7.7.7.7.7.7.7.7.7.7.8.,.J 3.8.t. .% V ^ r 4 D *  .j.X.* ",
"* X.j. .* D 4 r ^ V %  .t.8.3.J ,.8.7.7.7.7.7.7.7.7.7.7.7.7.7.7.7.7.7.7.7.7.7.7.7.7.8.,.J 3.8.t. .% V ^ r 4 D *  .j.X.* ",
"* X.j. .* D 4 r ^ V %  .t.8.3.J ,.8.7.7.7.7.7.7.7.7.7.7.7.7.7.7.7.7.7.7.7.7.7.7.7.7.8.,.J 3.8.t. .% V ^ r 4 D *  .j.X.* ",
"* X.j. .* D 4 r ^ V %  .t.8.3.J ,.8.7.7.7.7.7.7.7.7.7.7.7.7.7.7.7.7.7.7.7.7.7.7.7.7.8.,.J 3.8.t. .% V ^ r 4 D *  .j.X.* ",
"* X.j. .* D 4 r ] D % X.i.8.7.J ,.8.7.7.7.7.7.7.7.7.7.7.7.7.7.7.7.7.7.7.7.7.7.7.7.7.8.,.J 7.8.i.X.% D ] r 4 D *  .j.X.* ",
"* X.j. .* D q * 4 1 @ 1 D X.R V 2.t.7.7.7.7.7.7.7.7.7.7.7.7.7.7.7.7.7.7.7.7.7.7.7.7.t.2.V R X.D 1 @ 1 4 * q D *  .j.X.* ",
"* X.j. .* D q - r r s r q c X.&. .,.t.8.8.8.8.8.8.8.8.8.8.8.8.8.8.8.8.8.8.8.8.8.8.t.,. .&.X.c q r s r r - q D *  .j.X.* ",
"* X.j. .* D 4 s ] ^ R ] q q j.t.] ] 2.,.,.,.,.,.,.,.,.,.,.,.,.,.,.,.,.,.,.,.,.,.,.2.] ] t.j.q q ] R ^ ] s 4 D *  .j.X.* ",
"* X.j. .* D 4 r J V J R r r 7.7.t.&.V R J J J J J J J J J J J J J J J J J J J J R V &.t.7.7.r r R J V J r 4 D *  .j.X.* ",
"* X.j. .* D q @ % 1 J R R h q 7.j.X.R 7.3.3.3.3.3.3.3.3.3.3.3.3.3.3.3.3.3.3.3.3.7.R X.j.7.q h R R J 1 % @ q D *  .j.X.* ",
"* X.j. .* D q q n h q n ^ D h r e h X.8.8.8.8.8.8.8.8.8.8.8.8.8.8.8.8.8.8.8.8.8.8.X.h e r h D ^ n q h n q q D *  .j.X.* ",
"* X.j. .* D 4 s ] J @ h ] ^ R r q q J j.t.t.t.t.t.t.t.t.t.t.t.t.t.t.t.t.t.t.t.t.j.J q q r R ^ ] h @ J ] s 4 D *  .j.X.* ",
"* X.j. .@ J 4 r ( D q h h n R R ] r 1 X. . . . . . . . . . . . . . . . . . . . .X.1 r ] R R n h h q D ( r 4 J @  .j.X.* ",
"* X.j.X.- V 1 r R J R e @ q J J R s @ % % % % % % % % % % % % % % % % % % % % % % @ s R J J q @ e R J R r 1 V - X.j.X.* ",
"* X.j.2.v - . @ r R J D J h - V ^ r 1 D V V V V V V V V V V V V V V V V V V V V D 1 r ^ V - h J D J R r @ . - v 2.j.X.* ",
"* ,.2.( 2.X.=.f   r R ^ ] n % J ] s q ] ^ ^ ^ ^ ^ ^ ^ ^ ^ ^ ^ ^ ^ ^ ^ ^ ^ ^ ^ ^ ] q s ] J % n ] ^ R r   f =.X.2.( 2.,.* ",
"* J X.,.t.t.j.,.g @ r r s q @ r s - * r r r r r r r r r r r r r r r r r r r r r r * - s r @ q s r r @ g ,.j.t.t.,.X.J * ",
"* n 1.t.7.7.7.j.,.. 4 q 4 q q q 4 q q 4 4 4 4 4 4 4 4 4 4 4 4 4 4 4 4 4 4 4 4 4 4 q q 4 q q q 4 q 4 . ,.j.7.7.7.t.1.n * ",
"* X.u.7.7.7.7.t.X.- V J D D D D D D D D D D D D D D D D D D D D D D D D D D D D D D D D D D D D J V - X.t.7.7.7.7.u.X.* ",
"* X.t.7.7.7.7.t.2.v - % * * * * * * * * * * * * * * * * * * * * * * * * * * * * * * * * * * * * % - v 2.t.7.7.7.7.t.X.* ",
"* X.t.7.7.7.t.=.( 2.X.]  . . . . . . . . . . . . . . . . . . . . . . . . . . . . . . . . . . . .] X.2.( =.t.7.7.7.t.X.* ",
"* -.j.t.t.t.1.X.2.j.j.j.j.j.j.j.j.j.j.j.j.j.j.j.j.j.j.j.j.j.j.j.j.j.j.j.j.j.j.j.j.j.j.j.j.j.j.j.j.j.j.2.X.1.t.t.t.j.-.* ",
"* J &.X.X.X.b J ,.X.X.X.X.X.X.X.X.X.X.X.X.X.X.X.X.X.X.X.X.X.X.X.X.X.X.X.X.X.X.X.X.X.X.X.X.X.X.X.X.X.X.,.J b X.X.X.&.J * ",
"* * * * * * * * * * * * * * * * * * * * * * * * * * * * * * * * * * * * * * * * * * * * * * * * * * * * * * * * * * * * "
};
