/* XPM */
static char *_9a2680f35b843c7e2e493b911185fe7oIABDLfT97H1w3FB[] = {
/* columns rows colors chars-per-pixel */
"60 60 57 1 ",
"  c #C48F68",
". c #C79369",
"X c #C8966B",
"o c #CA9B6E",
"O c #D09E6B",
"+ c #C79A70",
"@ c #CA9E70",
"# c #CBA375",
"$ c #CEA977",
"% c #CDAE7A",
"& c #D0A673",
"* c #D0AE79",
"= c #CEB17E",
"- c #D5B377",
"; c #D8B577",
": c #D2B37D",
"> c #D9B67A",
", c #DCBA7A",
"< c #E3BC76",
"1 c #E8BF74",
"2 c #E0BB78",
"3 c #F4C66F",
"4 c #F7C86F",
"5 c #E7C177",
"6 c #EAC073",
"7 c #EDC272",
"8 c #E9C074",
"9 c #F0C371",
"0 c #F2C570",
"q c #F5C770",
"w c #CBAF80",
"e c #CDB281",
"r c #D0B581",
"t c #D5B681",
"y c #D3B684",
"u c #D4B784",
"i c #D3B881",
"p c #D6B883",
"a c #D7B986",
"s c #DABB86",
"d c #DBBC86",
"f c #D7BA88",
"g c #D8BA88",
"h c #DDBF8A",
"j c #DFC18F",
"k c #E0C28F",
"l c #E3C491",
"z c #E6C793",
"x c #E7C895",
"c c #E9CA95",
"v c #EBCC98",
"b c #EECF9B",
"n c #EFD19E",
"m c #F2D39F",
"M c #F2D3A0",
"N c #F3D4A0",
"B c #F4D5A1",
/* pixels */
"XXXXXXXXXXXXXXXXXXXXXXXXXXXXXXXXXXXXXXXXXXXXXXXXXXXXXXXXXXXX",
"XX......XX.........X.........X.........XXXXXXXXXXX......XXXX",
"X.o$$##+ X########@.########@.########@..........X#####$o.XX",
"Xo*i:,,;O#,,,,,,,,;@,,,,,,,,;@,,,,,,,,;o@@@@@@@@o#:,,,,r$oXX",
"X$::>03q5:7300000q<:7300300q<:7300000q<::::::::::::6330>r$.X",
"XX#,003<:::630003<:::630303<:::630003<:::::::::::::63000,#.X",
"X..&,,,-%=%-;;,,,:===:>>,,,-%=%-;;,,,:=====:::::===-;;,,&XXX",
"X#oXe=%pkkkjjg%=w><<<,2>w=%pkkkjjg%=w><<<<<,=:%pkkkjjg%=o.XX",
"X:$#,:tzBmmmBvp:>84qqq47>:tzBmmmBvp:>84qqq47>:tzBmmmBvp:@.XX",
"X$r,0:xmbbbbbmbr1q0000009:xmbbbbbmbr1q0000009:xmbbbbbmbto.XX",
"X$r,0:xmbbbbbmbr1q0000009:xmbbbbbmbr1q0000009:xmbbbbbmbto.XX",
"X:$#,:tzBmmmBvp:>84qqq47>:tzBmmmBvp:>84qqq47>:tzBmmmBvp:@.XX",
"X#oXe=%ukkkkkg%=w:<<<<<>w=%ukkkkkg%=w:<<<<<>w=%ukkkkkg%=o.XX",
"X..&,,,>-%=%:;,,,>:===:>,,,;-%=%:;,,,>:===:>,,,>-%=%:;,,&X.X",
"XX#,30036:::<303036:::<300336:::<300036:::<300036:::<303,#XX",
"X$:,000006:<00000006:<00000006:<00000006:<00000006:<0000,:$X",
"X*r,000030:830000030:840000030:840000030:840000030:84000,r*X",
"X@%,3qq37,:,73qqq37,:,73qqq37,:,73qqq37,:,73qqq37,:,73q3,%@X",
"X.@-81162=:=,611162=:=,611162=:=,611162=:=,611162=:=,618-@.X",
"XX.o::::::::::::::::::::::::::::::::::::::::::::::::::::o.XX",
"XX.o::::::::::::::::::::::::::::::::::::::::::::::::::::o.XX",
"X.@-816,=:%jczzzcs%:=261116,=:%jczzzcs%:=261116,=:=26118-@.X",
"X.#,3q37>:hbMmmmMcs:,73qqq37>:hbMmmmMcs:,73qqq37,:,73qq3,%@X",
"X.#,00046rnmbbbbbBc:030000046rnmbbbbbBc:030000048:030000,r*X",
"X.#,0000<rcbbbbbbml:60000000<rcbbbbbbml:60000000<:600003,:$X",
"X.#,303<:::cNmmmNk:::630003<:::cNmmmNk:::630003<:::63003,#XX",
"X..#,,,:==%ufassdr%==:>>,,,:==%ufassdr%==:>>,,,-%=%-;;,,&X.X",
"X##$e=w><<<2<;%=%><<<,2>w=w><<<2<;%=%><<<,2>w=%pkkkjjg%=o.XX",
"X*i:>::84qqq47>::84qqq47>::84qqq47>::84qqq47>:tzBmmmBvp:@.XX",
"X$r,0:8q0000009:8q0000009:8q0000009:8q0000009:xmbbbbbmbto.XX",
"X$r,0:8q0000009:8q0000009:8q0000009:8q0000009:xmbbbbbmbto.XX",
"X*i:>::84qqq47>::84qqq47>::84qqq47>::84qqq47>:tzBmmmBvp:@.XX",
"X##$e=%:<<<<<>w=%:<<<<2;%=%>2<<<<>w=%:<<<<<>w=%ukkkkkd%:@.XX",
"X..#,,,>:===:>,,,>:==%rsssssy%==:>,,,>:===:>,,,>-%===:::@.XX",
"X.#,30036:::<300036:::kNmmmNc:::<300036:::<300036:::::::@.XX",
"X.#,000006:<00000006:lmbbbbbbcr<00000006:<00000006::::::@.XX",
"X.#,000030:840000030:cBbbbbbmnr640000030:840000030::::::@.XX",
"X.#,3qq37,:,73qqq37,:scMmmmMbh:>73qqq37,:,73qqq37,::::::@.XX",
"X.@-81162=:=,611162=:%sczzzcj%:=,611162=:=,611162=::::::@.XX",
"XX.o::::::::::::::::::::::::::::::::::::::::::::::::::::@.XX",
"XX.@::::::::::::::::::::::::::::::::::::::::::::::::::::o.XX",
"XX.@::::::=261116,=:%jczzzcs%:=261116,=:=261116,=:=26118-@.X",
"XX.@::::::,73qqq37>:hbMmmmMcs:,73qqq37,:,73qqq37,:,73qq3,%@X",
"XX.@::::::030000046rnmbbbbbBc:030000048:030000048:030000,r*X",
"XX.@::::::60000000<rcbbbbbbml:60000000<:60000000<:600000,:$X",
"XX.@:::::::630003<:::cNmmmNk:::630003<:::630003<:::63003,#XX",
"XX.o::::==%-;;,,,:==%ufassdr%==:>>,,,:===:>>,,,:===:>>,,&X.X",
"XXo$::%pkkkjjg%=w><<<2<;%=%><<<,2>w=w><<<,2>w=w><<<,2>w=o.XX",
"X.$p>:tzBmmmBvp:>84qqq47>::84qqq47>::84qqq47>::84qqq47>:@.XX",
"X.#,0:xmbbbbbmbr1q0000009:8q0000009:8q0000009:8q0000000:@.XX",
"X.#,0:xmbbbbbmbr1q0000009:8q0000009:8q0000009:8q0000000:@.XX",
"X.$p>:tzBmmmBvp:>84qqq47>::84qqq47>::84qqq47>::84qqq47>:@.XX",
"XXo$e=%ukkkkkg%=w:<<<<<>w=%:<<<<<,=:=><<<<<>w=%:<<<<<>w=o.XX",
"XXX&,,,>-%=%:;,,,>:===:>,,,>:====:::::====:>,,,>:===:>,,&XXX",
"X.#,00036:::<300036:::<300036:::::::::::::<300036:::<303,#.X",
"XX.#,03037:<q000036::<q0000037:::::::::::<q0000037:<q003,#.X",
"XXX.#,,,,,@;,,,,,,,:@;,,,,,,,,#o@@@@@@@@o;,,,,,,,,@;,,,,p$.X",
"XXXX.#####.@########.@########...........@########.@####$oXX",
"XXXXX.....X.........X.........XXXXXXXXXXX.........X.......XX",
"XXXXXXXXXXXXXXXXXXXXXXXXXXXXXXXXXXXXXXXXXXXXXXXXXXXXXXXXXXXX"
};
